<svg width="2000" height="730" viewBox="0 0 2000 730" fill="none" xmlns="http://www.w3.org/2000/svg">
<rect width="2000" height="730" fill="#2D2D2D"/>
<path d="M1531.68 413.288C1531.68 409.576 1533.86 407.4 1537.57 407.4H1575.2C1579.04 407.4 1581.09 409.576 1581.09 413.288V417C1581.09 420.84 1578.91 422.888 1575.2 422.888H1551.9C1549.86 422.888 1548.58 424.168 1548.58 426.216V439.912C1548.58 441.96 1549.86 443.24 1551.9 443.24H1572.64C1576.48 443.24 1578.53 445.416 1578.53 449.128V452.84C1578.53 456.68 1576.35 458.728 1572.64 458.728H1551.9C1549.86 458.728 1548.58 460.008 1548.58 462.056V478.184C1548.58 480.36 1549.86 481.512 1551.9 481.512H1575.2C1579.04 481.512 1581.09 483.688 1581.09 487.4V491.112C1581.09 494.952 1578.91 497 1575.2 497H1537.57C1533.73 497 1531.68 494.824 1531.68 491.112V413.288Z" fill="white"/>
<path d="M1454.07 497C1450.36 497 1448.18 494.824 1448.18 491.112V413.288C1448.18 409.448 1450.36 407.4 1454.07 407.4H1460.47C1463.67 407.4 1465.72 408.68 1467.38 411.368L1495.41 459.112C1497.08 462.056 1499.38 461.16 1499.38 457.96V413.288C1499.38 409.448 1501.56 407.4 1505.27 407.4H1510.39C1514.23 407.4 1516.28 409.576 1516.28 413.288V491.112C1516.28 494.952 1514.1 497 1510.39 497H1503.99C1500.79 497 1498.61 495.848 1496.95 493.16L1469.17 448.872C1467.51 446.184 1465.08 446.824 1465.08 450.024V491.112C1465.08 494.824 1462.9 497 1459.19 497H1454.07Z" fill="white"/>
<path d="M1415.93 413.288C1415.93 409.576 1418.11 407.4 1421.82 407.4H1426.94C1430.78 407.4 1432.83 409.576 1432.83 413.288V491.112C1432.83 494.952 1430.65 497 1426.94 497H1421.82C1417.98 497 1415.93 494.824 1415.93 491.112V413.288Z" fill="white"/>
<path d="M1364.52 498.536C1338.67 498.536 1319.34 477.8 1319.34 452.2C1319.34 426.728 1338.67 405.992 1362.6 405.992C1376.17 405.992 1388.33 412.776 1396.27 423.272C1398.83 426.728 1397.29 429.8 1393.32 430.952L1388.84 432.36C1385.64 433.384 1383.34 432.36 1381.04 429.928C1376.3 425.064 1369.77 421.864 1362.86 421.864C1348.27 421.864 1336.11 436.2 1336.11 452.328C1336.11 468.584 1348.27 482.792 1365.04 482.792C1378.35 482.792 1385.52 476.136 1388.84 468.968C1389.87 466.664 1388.59 465.128 1386.16 465.128H1369.39C1365.55 465.128 1363.5 462.952 1363.5 459.24V455.528C1363.5 451.688 1365.68 449.64 1369.39 449.64H1399.47C1407.02 449.64 1405.48 449.896 1405.48 467.304C1405.48 480.744 1387.82 498.536 1364.52 498.536Z" fill="white"/>
<path d="M1248.07 497C1244.36 497 1242.18 494.824 1242.18 491.112V413.288C1242.18 409.448 1244.36 407.4 1248.07 407.4H1254.47C1257.67 407.4 1259.72 408.68 1261.38 411.368L1289.41 459.112C1291.08 462.056 1293.38 461.16 1293.38 457.96V413.288C1293.38 409.448 1295.56 407.4 1299.27 407.4H1304.39C1308.23 407.4 1310.28 409.576 1310.28 413.288V491.112C1310.28 494.952 1308.1 497 1304.39 497H1297.99C1294.79 497 1292.61 495.848 1290.95 493.16L1263.17 448.872C1261.51 446.184 1259.08 446.824 1259.08 450.024V491.112C1259.08 494.824 1256.9 497 1253.19 497H1248.07Z" fill="white"/>
<path d="M1178.68 413.288C1178.68 409.576 1180.86 407.4 1184.57 407.4H1222.2C1226.04 407.4 1228.09 409.576 1228.09 413.288V417C1228.09 420.84 1225.91 422.888 1222.2 422.888H1198.9C1196.86 422.888 1195.58 424.168 1195.58 426.216V439.912C1195.58 441.96 1196.86 443.24 1198.9 443.24H1219.64C1223.48 443.24 1225.53 445.416 1225.53 449.128V452.84C1225.53 456.68 1223.35 458.728 1219.64 458.728H1198.9C1196.86 458.728 1195.58 460.008 1195.58 462.056V478.184C1195.58 480.36 1196.86 481.512 1198.9 481.512H1222.2C1226.04 481.512 1228.09 483.688 1228.09 487.4V491.112C1228.09 494.952 1225.91 497 1222.2 497H1184.57C1180.73 497 1178.68 494.824 1178.68 491.112V413.288Z" fill="white"/>
<path d="M1081.18 413.288C1081.18 409.576 1083.36 407.4 1087.07 407.4H1092.19C1096.03 407.4 1098.08 409.576 1098.08 413.288V438.248C1098.08 440.424 1099.36 441.704 1101.53 441.32C1114.84 439.144 1121.37 427.24 1122.27 413.288C1122.52 409.448 1124.57 407.4 1128.28 407.4H1133.4C1137.24 407.4 1139.29 409.448 1139.16 413.416C1138.52 426.984 1135.45 438.632 1124.32 447.336C1122.52 448.744 1122.4 450.28 1124.32 451.816C1135.84 461.288 1140.19 472.296 1141.34 490.856C1141.6 494.824 1139.42 497 1135.58 497H1130.46C1126.75 497 1124.83 494.952 1124.44 491.112C1122.78 471.272 1113.05 461.16 1101.66 458.344C1099.48 457.832 1098.08 459.112 1098.08 461.416V491.112C1098.08 494.952 1095.9 497 1092.19 497H1087.07C1083.23 497 1081.18 494.824 1081.18 491.112V413.288Z" fill="white"/>
<path d="M1003.57 497C999.856 497 997.68 494.824 997.68 491.112V413.288C997.68 409.448 999.856 407.4 1003.57 407.4H1009.97C1013.17 407.4 1015.22 408.68 1016.88 411.368L1044.91 459.112C1046.58 462.056 1048.88 461.16 1048.88 457.96V413.288C1048.88 409.448 1051.06 407.4 1054.77 407.4H1059.89C1063.73 407.4 1065.78 409.576 1065.78 413.288V491.112C1065.78 494.952 1063.6 497 1059.89 497H1053.49C1050.29 497 1048.11 495.848 1046.45 493.16L1018.67 448.872C1017.01 446.184 1014.58 446.824 1014.58 450.024V491.112C1014.58 494.824 1012.4 497 1008.69 497H1003.57Z" fill="white"/>
<path d="M923.653 492.392C922.501 495.464 920.197 497 916.869 497H910.981C906.629 497 904.709 494.312 906.373 490.216L937.733 412.008C939.013 408.936 941.189 407.4 944.517 407.4H946.949C950.277 407.4 952.453 408.68 953.733 411.88L987.013 490.088C988.677 494.184 986.885 497 982.533 497H976.773C973.445 497 971.141 495.592 969.861 492.392L967.045 485.352C966.405 483.56 965.125 482.792 963.205 482.792H930.181C928.261 482.792 926.981 483.56 926.341 485.352L923.653 492.392ZM934.277 463.592C933.381 465.896 934.405 467.432 936.837 467.432H955.781C958.213 467.432 959.237 465.896 958.341 463.592L948.229 439.144C947.077 436.456 944.773 436.328 943.749 439.144L934.277 463.592Z" fill="white"/>
<path d="M863.584 407.4C885.216 407.4 896.096 419.432 896.096 438.376C896.096 449.128 892.128 457.32 884.448 462.312C882.528 463.72 882.4 465 884.192 466.536C891.616 472.68 895.456 482.152 896.736 490.984C897.376 494.824 894.944 497 891.104 497H887.136C883.552 497 881.76 495.08 880.992 491.496C879.072 482.152 872.16 470.248 857.696 468.2L856.032 468.072C853.856 467.944 852.576 469.224 852.576 471.4V491.112C852.576 494.824 850.4 497 846.688 497H841.568C837.728 497 835.68 494.824 835.68 491.112V413.288C835.68 409.448 837.856 407.4 841.568 407.4H863.584ZM863.2 453.224C885.344 453.224 885.344 422.888 864.352 422.888H855.904C853.856 422.888 852.576 424.168 852.576 426.216V449.896C852.576 451.944 853.856 453.224 855.904 453.224H863.2Z" fill="white"/>
<path d="M787.979 498.536C764.043 498.536 744.715 477.8 744.715 452.2C744.715 426.728 764.043 405.992 787.979 405.992C801.547 405.992 813.707 412.776 821.643 423.272C824.203 426.728 822.795 429.672 818.699 430.952L814.987 432.104C811.787 433.128 809.483 432.104 807.179 429.672C802.315 424.68 795.787 421.48 788.619 421.48C773.771 421.48 761.483 435.944 761.483 452.328C761.483 468.84 773.771 483.176 788.619 483.176C796.811 483.176 803.083 478.824 807.691 472.296C809.611 469.48 811.787 468.328 814.987 468.712L818.955 469.096C822.923 469.48 825.099 471.4 824.331 473.96C820.235 485.864 807.563 498.536 787.979 498.536Z" fill="white"/>
<path d="M675.318 497C671.606 497 669.43 494.824 669.43 491.112V413.288C669.43 409.448 671.606 407.4 675.318 407.4H692.214C725.11 407.4 737.526 426.728 737.526 451.944C737.526 475.496 724.982 496.616 692.214 497.128L675.318 497ZM686.326 476.648C686.326 478.696 687.478 479.976 689.654 479.976C691.702 479.976 693.878 479.976 693.878 479.976C729.206 479.976 729.334 423.912 694.39 423.912L689.654 424.04C687.606 424.04 686.326 425.32 686.326 427.368V476.648Z" fill="white"/>
<path d="M591.818 497C588.106 497 585.93 494.824 585.93 491.112V413.288C585.93 409.448 588.106 407.4 591.818 407.4H598.218C601.418 407.4 603.466 408.68 605.13 411.368L633.162 459.112C634.826 462.056 637.13 461.16 637.13 457.96V413.288C637.13 409.448 639.306 407.4 643.018 407.4H648.138C651.978 407.4 654.026 409.576 654.026 413.288V491.112C654.026 494.952 651.85 497 648.138 497H641.738C638.538 497 636.362 495.848 634.698 493.16L606.922 448.872C605.258 446.184 602.826 446.824 602.826 450.024V491.112C602.826 494.824 600.65 497 596.938 497H591.818Z" fill="white"/>
<path d="M511.903 492.392C510.751 495.464 508.447 497 505.119 497H499.231C494.879 497 492.959 494.312 494.623 490.216L525.983 412.008C527.263 408.936 529.439 407.4 532.767 407.4H535.199C538.527 407.4 540.703 408.68 541.983 411.88L575.263 490.088C576.927 494.184 575.135 497 570.783 497H565.023C561.695 497 559.391 495.592 558.111 492.392L555.295 485.352C554.655 483.56 553.375 482.792 551.455 482.792H518.431C516.511 482.792 515.231 483.56 514.591 485.352L511.903 492.392ZM522.527 463.592C521.631 465.896 522.655 467.432 525.087 467.432H544.031C546.463 467.432 547.487 465.896 546.591 463.592L536.479 439.144C535.327 436.456 533.023 436.328 531.999 439.144L522.527 463.592Z" fill="white"/>
<path d="M418.68 413.288C418.68 409.576 420.856 407.4 424.568 407.4H429.688C433.528 407.4 435.576 409.576 435.576 413.288V440.168C435.576 442.344 436.856 443.496 438.904 443.496H466.552C468.6 443.496 469.88 442.216 469.88 440.168V413.288C469.88 409.448 472.056 407.4 475.768 407.4H480.888C484.728 407.4 486.776 409.576 486.776 413.288V491.112C486.776 494.952 484.6 497 480.888 497H475.768C471.928 497 469.88 494.824 469.88 491.112V462.312C469.88 460.136 468.6 458.984 466.552 458.984H438.904C436.856 458.984 435.576 460.264 435.576 462.312V491.112C435.576 494.824 433.4 497 429.688 497H424.568C420.728 497 418.68 494.824 418.68 491.112V413.288Z" fill="white"/>
<path opacity="0.5" d="M1531.68 311.288C1531.68 307.576 1533.86 305.4 1537.57 305.4H1575.2C1579.04 305.4 1581.09 307.576 1581.09 311.288V315C1581.09 318.84 1578.91 320.888 1575.2 320.888H1551.9C1549.86 320.888 1548.58 322.168 1548.58 324.216V337.912C1548.58 339.96 1549.86 341.24 1551.9 341.24H1572.64C1576.48 341.24 1578.53 343.416 1578.53 347.128V350.84C1578.53 354.68 1576.35 356.728 1572.64 356.728H1551.9C1549.86 356.728 1548.58 358.008 1548.58 360.056V376.184C1548.58 378.36 1549.86 379.512 1551.9 379.512H1575.2C1579.04 379.512 1581.09 381.688 1581.09 385.4V389.112C1581.09 392.952 1578.91 395 1575.2 395H1537.57C1533.73 395 1531.68 392.824 1531.68 389.112V311.288Z" fill="white"/>
<path opacity="0.5" d="M1454.07 395C1450.36 395 1448.18 392.824 1448.18 389.112V311.288C1448.18 307.448 1450.36 305.4 1454.07 305.4H1460.47C1463.67 305.4 1465.72 306.68 1467.38 309.368L1495.41 357.112C1497.08 360.056 1499.38 359.16 1499.38 355.96V311.288C1499.38 307.448 1501.56 305.4 1505.27 305.4H1510.39C1514.23 305.4 1516.28 307.576 1516.28 311.288V389.112C1516.28 392.952 1514.1 395 1510.39 395H1503.99C1500.79 395 1498.61 393.848 1496.95 391.16L1469.17 346.872C1467.51 344.184 1465.08 344.824 1465.08 348.024V389.112C1465.08 392.824 1462.9 395 1459.19 395H1454.07Z" fill="white"/>
<path opacity="0.5" d="M1415.93 311.288C1415.93 307.576 1418.11 305.4 1421.82 305.4H1426.94C1430.78 305.4 1432.83 307.576 1432.83 311.288V389.112C1432.83 392.952 1430.65 395 1426.94 395H1421.82C1417.98 395 1415.93 392.824 1415.93 389.112V311.288Z" fill="white"/>
<path opacity="0.5" d="M1364.52 396.536C1338.67 396.536 1319.34 375.8 1319.34 350.2C1319.34 324.728 1338.67 303.992 1362.6 303.992C1376.17 303.992 1388.33 310.776 1396.27 321.272C1398.83 324.728 1397.29 327.8 1393.32 328.952L1388.84 330.36C1385.64 331.384 1383.34 330.36 1381.04 327.928C1376.3 323.064 1369.77 319.864 1362.86 319.864C1348.27 319.864 1336.11 334.2 1336.11 350.328C1336.11 366.584 1348.27 380.792 1365.04 380.792C1378.35 380.792 1385.52 374.136 1388.84 366.968C1389.87 364.664 1388.59 363.128 1386.16 363.128H1369.39C1365.55 363.128 1363.5 360.952 1363.5 357.24V353.528C1363.5 349.688 1365.68 347.64 1369.39 347.64H1399.47C1407.02 347.64 1405.48 347.896 1405.48 365.304C1405.48 378.744 1387.82 396.536 1364.52 396.536Z" fill="white"/>
<path opacity="0.5" d="M1248.07 395C1244.36 395 1242.18 392.824 1242.18 389.112V311.288C1242.18 307.448 1244.36 305.4 1248.07 305.4H1254.47C1257.67 305.4 1259.72 306.68 1261.38 309.368L1289.41 357.112C1291.08 360.056 1293.38 359.16 1293.38 355.96V311.288C1293.38 307.448 1295.56 305.4 1299.27 305.4H1304.39C1308.23 305.4 1310.28 307.576 1310.28 311.288V389.112C1310.28 392.952 1308.1 395 1304.39 395H1297.99C1294.79 395 1292.61 393.848 1290.95 391.16L1263.17 346.872C1261.51 344.184 1259.08 344.824 1259.08 348.024V389.112C1259.08 392.824 1256.9 395 1253.19 395H1248.07Z" fill="white"/>
<path opacity="0.5" d="M1178.68 311.288C1178.68 307.576 1180.86 305.4 1184.57 305.4H1222.2C1226.04 305.4 1228.09 307.576 1228.09 311.288V315C1228.09 318.84 1225.91 320.888 1222.2 320.888H1198.9C1196.86 320.888 1195.58 322.168 1195.58 324.216V337.912C1195.58 339.96 1196.86 341.24 1198.9 341.24H1219.64C1223.48 341.24 1225.53 343.416 1225.53 347.128V350.84C1225.53 354.68 1223.35 356.728 1219.64 356.728H1198.9C1196.86 356.728 1195.58 358.008 1195.58 360.056V376.184C1195.58 378.36 1196.86 379.512 1198.9 379.512H1222.2C1226.04 379.512 1228.09 381.688 1228.09 385.4V389.112C1228.09 392.952 1225.91 395 1222.2 395H1184.57C1180.73 395 1178.68 392.824 1178.68 389.112V311.288Z" fill="white"/>
<path opacity="0.5" d="M1081.18 311.288C1081.18 307.576 1083.36 305.4 1087.07 305.4H1092.19C1096.03 305.4 1098.08 307.576 1098.08 311.288V336.248C1098.08 338.424 1099.36 339.704 1101.53 339.32C1114.84 337.144 1121.37 325.24 1122.27 311.288C1122.52 307.448 1124.57 305.4 1128.28 305.4H1133.4C1137.24 305.4 1139.29 307.448 1139.16 311.416C1138.52 324.984 1135.45 336.632 1124.32 345.336C1122.52 346.744 1122.4 348.28 1124.32 349.816C1135.84 359.288 1140.19 370.296 1141.34 388.856C1141.6 392.824 1139.42 395 1135.58 395H1130.46C1126.75 395 1124.83 392.952 1124.44 389.112C1122.78 369.272 1113.05 359.16 1101.66 356.344C1099.48 355.832 1098.08 357.112 1098.08 359.416V389.112C1098.08 392.952 1095.9 395 1092.19 395H1087.07C1083.23 395 1081.18 392.824 1081.18 389.112V311.288Z" fill="white"/>
<path opacity="0.5" d="M1003.57 395C999.856 395 997.68 392.824 997.68 389.112V311.288C997.68 307.448 999.856 305.4 1003.57 305.4H1009.97C1013.17 305.4 1015.22 306.68 1016.88 309.368L1044.91 357.112C1046.58 360.056 1048.88 359.16 1048.88 355.96V311.288C1048.88 307.448 1051.06 305.4 1054.77 305.4H1059.89C1063.73 305.4 1065.78 307.576 1065.78 311.288V389.112C1065.78 392.952 1063.6 395 1059.89 395H1053.49C1050.29 395 1048.11 393.848 1046.45 391.16L1018.67 346.872C1017.01 344.184 1014.58 344.824 1014.58 348.024V389.112C1014.58 392.824 1012.4 395 1008.69 395H1003.57Z" fill="white"/>
<path opacity="0.5" d="M923.653 390.392C922.501 393.464 920.197 395 916.869 395H910.981C906.629 395 904.709 392.312 906.373 388.216L937.733 310.008C939.013 306.936 941.189 305.4 944.517 305.4H946.949C950.277 305.4 952.453 306.68 953.733 309.88L987.013 388.088C988.677 392.184 986.885 395 982.533 395H976.773C973.445 395 971.141 393.592 969.861 390.392L967.045 383.352C966.405 381.56 965.125 380.792 963.205 380.792H930.181C928.261 380.792 926.981 381.56 926.341 383.352L923.653 390.392ZM934.277 361.592C933.381 363.896 934.405 365.432 936.837 365.432H955.781C958.213 365.432 959.237 363.896 958.341 361.592L948.229 337.144C947.077 334.456 944.773 334.328 943.749 337.144L934.277 361.592Z" fill="white"/>
<path opacity="0.5" d="M863.584 305.4C885.216 305.4 896.096 317.432 896.096 336.376C896.096 347.128 892.128 355.32 884.448 360.312C882.528 361.72 882.4 363 884.192 364.536C891.616 370.68 895.456 380.152 896.736 388.984C897.376 392.824 894.944 395 891.104 395H887.136C883.552 395 881.76 393.08 880.992 389.496C879.072 380.152 872.16 368.248 857.696 366.2L856.032 366.072C853.856 365.944 852.576 367.224 852.576 369.4V389.112C852.576 392.824 850.4 395 846.688 395H841.568C837.728 395 835.68 392.824 835.68 389.112V311.288C835.68 307.448 837.856 305.4 841.568 305.4H863.584ZM863.2 351.224C885.344 351.224 885.344 320.888 864.352 320.888H855.904C853.856 320.888 852.576 322.168 852.576 324.216V347.896C852.576 349.944 853.856 351.224 855.904 351.224H863.2Z" fill="white"/>
<path opacity="0.5" d="M787.979 396.536C764.043 396.536 744.715 375.8 744.715 350.2C744.715 324.728 764.043 303.992 787.979 303.992C801.547 303.992 813.707 310.776 821.643 321.272C824.203 324.728 822.795 327.672 818.699 328.952L814.987 330.104C811.787 331.128 809.483 330.104 807.179 327.672C802.315 322.68 795.787 319.48 788.619 319.48C773.771 319.48 761.483 333.944 761.483 350.328C761.483 366.84 773.771 381.176 788.619 381.176C796.811 381.176 803.083 376.824 807.691 370.296C809.611 367.48 811.787 366.328 814.987 366.712L818.955 367.096C822.923 367.48 825.099 369.4 824.331 371.96C820.235 383.864 807.563 396.536 787.979 396.536Z" fill="white"/>
<path opacity="0.5" d="M675.318 395C671.606 395 669.43 392.824 669.43 389.112V311.288C669.43 307.448 671.606 305.4 675.318 305.4H692.214C725.11 305.4 737.526 324.728 737.526 349.944C737.526 373.496 724.982 394.616 692.214 395.128L675.318 395ZM686.326 374.648C686.326 376.696 687.478 377.976 689.654 377.976C691.702 377.976 693.878 377.976 693.878 377.976C729.206 377.976 729.334 321.912 694.39 321.912L689.654 322.04C687.606 322.04 686.326 323.32 686.326 325.368V374.648Z" fill="white"/>
<path opacity="0.5" d="M591.818 395C588.106 395 585.93 392.824 585.93 389.112V311.288C585.93 307.448 588.106 305.4 591.818 305.4H598.218C601.418 305.4 603.466 306.68 605.13 309.368L633.162 357.112C634.826 360.056 637.13 359.16 637.13 355.96V311.288C637.13 307.448 639.306 305.4 643.018 305.4H648.138C651.978 305.4 654.026 307.576 654.026 311.288V389.112C654.026 392.952 651.85 395 648.138 395H641.738C638.538 395 636.362 393.848 634.698 391.16L606.922 346.872C605.258 344.184 602.826 344.824 602.826 348.024V389.112C602.826 392.824 600.65 395 596.938 395H591.818Z" fill="white"/>
<path opacity="0.5" d="M511.903 390.392C510.751 393.464 508.447 395 505.119 395H499.231C494.879 395 492.959 392.312 494.623 388.216L525.983 310.008C527.263 306.936 529.439 305.4 532.767 305.4H535.199C538.527 305.4 540.703 306.68 541.983 309.88L575.263 388.088C576.927 392.184 575.135 395 570.783 395H565.023C561.695 395 559.391 393.592 558.111 390.392L555.295 383.352C554.655 381.56 553.375 380.792 551.455 380.792H518.431C516.511 380.792 515.231 381.56 514.591 383.352L511.903 390.392ZM522.527 361.592C521.631 363.896 522.655 365.432 525.087 365.432H544.031C546.463 365.432 547.487 363.896 546.591 361.592L536.479 337.144C535.327 334.456 533.023 334.328 531.999 337.144L522.527 361.592Z" fill="white"/>
<path opacity="0.5" d="M418.68 311.288C418.68 307.576 420.856 305.4 424.568 305.4H429.688C433.528 305.4 435.576 307.576 435.576 311.288V338.168C435.576 340.344 436.856 341.496 438.904 341.496H466.552C468.6 341.496 469.88 340.216 469.88 338.168V311.288C469.88 307.448 472.056 305.4 475.768 305.4H480.888C484.728 305.4 486.776 307.576 486.776 311.288V389.112C486.776 392.952 484.6 395 480.888 395H475.768C471.928 395 469.88 392.824 469.88 389.112V360.312C469.88 358.136 468.6 356.984 466.552 356.984H438.904C436.856 356.984 435.576 358.264 435.576 360.312V389.112C435.576 392.824 433.4 395 429.688 395H424.568C420.728 395 418.68 392.824 418.68 389.112V311.288Z" fill="white"/>
<path opacity="0.25" d="M1531.68 209.288C1531.68 205.576 1533.86 203.4 1537.57 203.4H1575.2C1579.04 203.4 1581.09 205.576 1581.09 209.288V213C1581.09 216.84 1578.91 218.888 1575.2 218.888H1551.9C1549.86 218.888 1548.58 220.168 1548.58 222.216V235.912C1548.58 237.96 1549.86 239.24 1551.9 239.24H1572.64C1576.48 239.24 1578.53 241.416 1578.53 245.128V248.84C1578.53 252.68 1576.35 254.728 1572.64 254.728H1551.9C1549.86 254.728 1548.58 256.008 1548.58 258.056V274.184C1548.58 276.36 1549.86 277.512 1551.9 277.512H1575.2C1579.04 277.512 1581.09 279.688 1581.09 283.4V287.112C1581.09 290.952 1578.91 293 1575.2 293H1537.57C1533.73 293 1531.68 290.824 1531.68 287.112V209.288Z" fill="white"/>
<path opacity="0.25" d="M1454.07 293C1450.36 293 1448.18 290.824 1448.18 287.112V209.288C1448.18 205.448 1450.36 203.4 1454.07 203.4H1460.47C1463.67 203.4 1465.72 204.68 1467.38 207.368L1495.41 255.112C1497.08 258.056 1499.38 257.16 1499.38 253.96V209.288C1499.38 205.448 1501.56 203.4 1505.27 203.4H1510.39C1514.23 203.4 1516.28 205.576 1516.28 209.288V287.112C1516.28 290.952 1514.1 293 1510.39 293H1503.99C1500.79 293 1498.61 291.848 1496.95 289.16L1469.17 244.872C1467.51 242.184 1465.08 242.824 1465.08 246.024V287.112C1465.08 290.824 1462.9 293 1459.19 293H1454.07Z" fill="white"/>
<path opacity="0.25" d="M1415.93 209.288C1415.93 205.576 1418.11 203.4 1421.82 203.4H1426.94C1430.78 203.4 1432.83 205.576 1432.83 209.288V287.112C1432.83 290.952 1430.65 293 1426.94 293H1421.82C1417.98 293 1415.93 290.824 1415.93 287.112V209.288Z" fill="white"/>
<path opacity="0.25" d="M1364.52 294.536C1338.67 294.536 1319.34 273.8 1319.34 248.2C1319.34 222.728 1338.67 201.992 1362.6 201.992C1376.17 201.992 1388.33 208.776 1396.27 219.272C1398.83 222.728 1397.29 225.8 1393.32 226.952L1388.84 228.36C1385.64 229.384 1383.34 228.36 1381.04 225.928C1376.3 221.064 1369.77 217.864 1362.86 217.864C1348.27 217.864 1336.11 232.2 1336.11 248.328C1336.11 264.584 1348.27 278.792 1365.04 278.792C1378.35 278.792 1385.52 272.136 1388.84 264.968C1389.87 262.664 1388.59 261.128 1386.16 261.128H1369.39C1365.55 261.128 1363.5 258.952 1363.5 255.24V251.528C1363.5 247.688 1365.68 245.64 1369.39 245.64H1399.47C1407.02 245.64 1405.48 245.896 1405.48 263.304C1405.48 276.744 1387.82 294.536 1364.52 294.536Z" fill="white"/>
<path opacity="0.25" d="M1248.07 293C1244.36 293 1242.18 290.824 1242.18 287.112V209.288C1242.18 205.448 1244.36 203.4 1248.07 203.4H1254.47C1257.67 203.4 1259.72 204.68 1261.38 207.368L1289.41 255.112C1291.08 258.056 1293.38 257.16 1293.38 253.96V209.288C1293.38 205.448 1295.56 203.4 1299.27 203.4H1304.39C1308.23 203.4 1310.28 205.576 1310.28 209.288V287.112C1310.28 290.952 1308.1 293 1304.39 293H1297.99C1294.79 293 1292.61 291.848 1290.95 289.16L1263.17 244.872C1261.51 242.184 1259.08 242.824 1259.08 246.024V287.112C1259.08 290.824 1256.9 293 1253.19 293H1248.07Z" fill="white"/>
<path opacity="0.25" d="M1178.68 209.288C1178.68 205.576 1180.86 203.4 1184.57 203.4H1222.2C1226.04 203.4 1228.09 205.576 1228.09 209.288V213C1228.09 216.84 1225.91 218.888 1222.2 218.888H1198.9C1196.86 218.888 1195.58 220.168 1195.58 222.216V235.912C1195.58 237.96 1196.86 239.24 1198.9 239.24H1219.64C1223.48 239.24 1225.53 241.416 1225.53 245.128V248.84C1225.53 252.68 1223.35 254.728 1219.64 254.728H1198.9C1196.86 254.728 1195.58 256.008 1195.58 258.056V274.184C1195.58 276.36 1196.86 277.512 1198.9 277.512H1222.2C1226.04 277.512 1228.09 279.688 1228.09 283.4V287.112C1228.09 290.952 1225.91 293 1222.2 293H1184.57C1180.73 293 1178.68 290.824 1178.68 287.112V209.288Z" fill="white"/>
<path opacity="0.25" d="M1081.18 209.288C1081.18 205.576 1083.36 203.4 1087.07 203.4H1092.19C1096.03 203.4 1098.08 205.576 1098.08 209.288V234.248C1098.08 236.424 1099.36 237.704 1101.53 237.32C1114.84 235.144 1121.37 223.24 1122.27 209.288C1122.52 205.448 1124.57 203.4 1128.28 203.4H1133.4C1137.24 203.4 1139.29 205.448 1139.16 209.416C1138.52 222.984 1135.45 234.632 1124.32 243.336C1122.52 244.744 1122.4 246.28 1124.32 247.816C1135.84 257.288 1140.19 268.296 1141.34 286.856C1141.6 290.824 1139.42 293 1135.58 293H1130.46C1126.75 293 1124.83 290.952 1124.44 287.112C1122.78 267.272 1113.05 257.16 1101.66 254.344C1099.48 253.832 1098.08 255.112 1098.08 257.416V287.112C1098.08 290.952 1095.9 293 1092.19 293H1087.07C1083.23 293 1081.18 290.824 1081.18 287.112V209.288Z" fill="white"/>
<path opacity="0.25" d="M1003.57 293C999.856 293 997.68 290.824 997.68 287.112V209.288C997.68 205.448 999.856 203.4 1003.57 203.4H1009.97C1013.17 203.4 1015.22 204.68 1016.88 207.368L1044.91 255.112C1046.58 258.056 1048.88 257.16 1048.88 253.96V209.288C1048.88 205.448 1051.06 203.4 1054.77 203.4H1059.89C1063.73 203.4 1065.78 205.576 1065.78 209.288V287.112C1065.78 290.952 1063.6 293 1059.89 293H1053.49C1050.29 293 1048.11 291.848 1046.45 289.16L1018.67 244.872C1017.01 242.184 1014.58 242.824 1014.58 246.024V287.112C1014.58 290.824 1012.4 293 1008.69 293H1003.57Z" fill="white"/>
<path opacity="0.25" d="M923.653 288.392C922.501 291.464 920.197 293 916.869 293H910.981C906.629 293 904.709 290.312 906.373 286.216L937.733 208.008C939.013 204.936 941.189 203.4 944.517 203.4H946.949C950.277 203.4 952.453 204.68 953.733 207.88L987.013 286.088C988.677 290.184 986.885 293 982.533 293H976.773C973.445 293 971.141 291.592 969.861 288.392L967.045 281.352C966.405 279.56 965.125 278.792 963.205 278.792H930.181C928.261 278.792 926.981 279.56 926.341 281.352L923.653 288.392ZM934.277 259.592C933.381 261.896 934.405 263.432 936.837 263.432H955.781C958.213 263.432 959.237 261.896 958.341 259.592L948.229 235.144C947.077 232.456 944.773 232.328 943.749 235.144L934.277 259.592Z" fill="white"/>
<path opacity="0.25" d="M863.584 203.4C885.216 203.4 896.096 215.432 896.096 234.376C896.096 245.128 892.128 253.32 884.448 258.312C882.528 259.72 882.4 261 884.192 262.536C891.616 268.68 895.456 278.152 896.736 286.984C897.376 290.824 894.944 293 891.104 293H887.136C883.552 293 881.76 291.08 880.992 287.496C879.072 278.152 872.16 266.248 857.696 264.2L856.032 264.072C853.856 263.944 852.576 265.224 852.576 267.4V287.112C852.576 290.824 850.4 293 846.688 293H841.568C837.728 293 835.68 290.824 835.68 287.112V209.288C835.68 205.448 837.856 203.4 841.568 203.4H863.584ZM863.2 249.224C885.344 249.224 885.344 218.888 864.352 218.888H855.904C853.856 218.888 852.576 220.168 852.576 222.216V245.896C852.576 247.944 853.856 249.224 855.904 249.224H863.2Z" fill="white"/>
<path opacity="0.25" d="M787.979 294.536C764.043 294.536 744.715 273.8 744.715 248.2C744.715 222.728 764.043 201.992 787.979 201.992C801.547 201.992 813.707 208.776 821.643 219.272C824.203 222.728 822.795 225.672 818.699 226.952L814.987 228.104C811.787 229.128 809.483 228.104 807.179 225.672C802.315 220.68 795.787 217.48 788.619 217.48C773.771 217.48 761.483 231.944 761.483 248.328C761.483 264.84 773.771 279.176 788.619 279.176C796.811 279.176 803.083 274.824 807.691 268.296C809.611 265.48 811.787 264.328 814.987 264.712L818.955 265.096C822.923 265.48 825.099 267.4 824.331 269.96C820.235 281.864 807.563 294.536 787.979 294.536Z" fill="white"/>
<path opacity="0.25" d="M675.318 293C671.606 293 669.43 290.824 669.43 287.112V209.288C669.43 205.448 671.606 203.4 675.318 203.4H692.214C725.11 203.4 737.526 222.728 737.526 247.944C737.526 271.496 724.982 292.616 692.214 293.128L675.318 293ZM686.326 272.648C686.326 274.696 687.478 275.976 689.654 275.976C691.702 275.976 693.878 275.976 693.878 275.976C729.206 275.976 729.334 219.912 694.39 219.912L689.654 220.04C687.606 220.04 686.326 221.32 686.326 223.368V272.648Z" fill="white"/>
<path opacity="0.25" d="M591.818 293C588.106 293 585.93 290.824 585.93 287.112V209.288C585.93 205.448 588.106 203.4 591.818 203.4H598.218C601.418 203.4 603.466 204.68 605.13 207.368L633.162 255.112C634.826 258.056 637.13 257.16 637.13 253.96V209.288C637.13 205.448 639.306 203.4 643.018 203.4H648.138C651.978 203.4 654.026 205.576 654.026 209.288V287.112C654.026 290.952 651.85 293 648.138 293H641.738C638.538 293 636.362 291.848 634.698 289.16L606.922 244.872C605.258 242.184 602.826 242.824 602.826 246.024V287.112C602.826 290.824 600.65 293 596.938 293H591.818Z" fill="white"/>
<path opacity="0.25" d="M511.903 288.392C510.751 291.464 508.447 293 505.119 293H499.231C494.879 293 492.959 290.312 494.623 286.216L525.983 208.008C527.263 204.936 529.439 203.4 532.767 203.4H535.199C538.527 203.4 540.703 204.68 541.983 207.88L575.263 286.088C576.927 290.184 575.135 293 570.783 293H565.023C561.695 293 559.391 291.592 558.111 288.392L555.295 281.352C554.655 279.56 553.375 278.792 551.455 278.792H518.431C516.511 278.792 515.231 279.56 514.591 281.352L511.903 288.392ZM522.527 259.592C521.631 261.896 522.655 263.432 525.087 263.432H544.031C546.463 263.432 547.487 261.896 546.591 259.592L536.479 235.144C535.327 232.456 533.023 232.328 531.999 235.144L522.527 259.592Z" fill="white"/>
<path opacity="0.25" d="M418.68 209.288C418.68 205.576 420.856 203.4 424.568 203.4H429.688C433.528 203.4 435.576 205.576 435.576 209.288V236.168C435.576 238.344 436.856 239.496 438.904 239.496H466.552C468.6 239.496 469.88 238.216 469.88 236.168V209.288C469.88 205.448 472.056 203.4 475.768 203.4H480.888C484.728 203.4 486.776 205.576 486.776 209.288V287.112C486.776 290.952 484.6 293 480.888 293H475.768C471.928 293 469.88 290.824 469.88 287.112V258.312C469.88 256.136 468.6 254.984 466.552 254.984H438.904C436.856 254.984 435.576 256.264 435.576 258.312V287.112C435.576 290.824 433.4 293 429.688 293H424.568C420.728 293 418.68 290.824 418.68 287.112V209.288Z" fill="white"/>
<path opacity="0.1" d="M1531.68 107.288C1531.68 103.576 1533.86 101.4 1537.57 101.4H1575.2C1579.04 101.4 1581.09 103.576 1581.09 107.288V111C1581.09 114.84 1578.91 116.888 1575.2 116.888H1551.9C1549.86 116.888 1548.58 118.168 1548.58 120.216V133.912C1548.58 135.96 1549.86 137.24 1551.9 137.24H1572.64C1576.48 137.24 1578.53 139.416 1578.53 143.128V146.84C1578.53 150.68 1576.35 152.728 1572.64 152.728H1551.9C1549.86 152.728 1548.58 154.008 1548.58 156.056V172.184C1548.58 174.36 1549.86 175.512 1551.9 175.512H1575.2C1579.04 175.512 1581.09 177.688 1581.09 181.4V185.112C1581.09 188.952 1578.91 191 1575.2 191H1537.57C1533.73 191 1531.68 188.824 1531.68 185.112V107.288Z" fill="white"/>
<path opacity="0.1" d="M1454.07 191C1450.36 191 1448.18 188.824 1448.18 185.112V107.288C1448.18 103.448 1450.36 101.4 1454.07 101.4H1460.47C1463.67 101.4 1465.72 102.68 1467.38 105.368L1495.41 153.112C1497.08 156.056 1499.38 155.16 1499.38 151.96V107.288C1499.38 103.448 1501.56 101.4 1505.27 101.4H1510.39C1514.23 101.4 1516.28 103.576 1516.28 107.288V185.112C1516.28 188.952 1514.1 191 1510.39 191H1503.99C1500.79 191 1498.61 189.848 1496.95 187.16L1469.17 142.872C1467.51 140.184 1465.08 140.824 1465.08 144.024V185.112C1465.08 188.824 1462.9 191 1459.19 191H1454.07Z" fill="white"/>
<path opacity="0.1" d="M1415.93 107.288C1415.93 103.576 1418.11 101.4 1421.82 101.4H1426.94C1430.78 101.4 1432.83 103.576 1432.83 107.288V185.112C1432.83 188.952 1430.65 191 1426.94 191H1421.82C1417.98 191 1415.93 188.824 1415.93 185.112V107.288Z" fill="white"/>
<path opacity="0.1" d="M1364.52 192.536C1338.67 192.536 1319.34 171.8 1319.34 146.2C1319.34 120.728 1338.67 99.992 1362.6 99.992C1376.17 99.992 1388.33 106.776 1396.27 117.272C1398.83 120.728 1397.29 123.8 1393.32 124.952L1388.84 126.36C1385.64 127.384 1383.34 126.36 1381.04 123.928C1376.3 119.064 1369.77 115.864 1362.86 115.864C1348.27 115.864 1336.11 130.2 1336.11 146.328C1336.11 162.584 1348.27 176.792 1365.04 176.792C1378.35 176.792 1385.52 170.136 1388.84 162.968C1389.87 160.664 1388.59 159.128 1386.16 159.128H1369.39C1365.55 159.128 1363.5 156.952 1363.5 153.24V149.528C1363.5 145.688 1365.68 143.64 1369.39 143.64H1399.47C1407.02 143.64 1405.48 143.896 1405.48 161.304C1405.48 174.744 1387.82 192.536 1364.52 192.536Z" fill="white"/>
<path opacity="0.1" d="M1248.07 191C1244.36 191 1242.18 188.824 1242.18 185.112V107.288C1242.18 103.448 1244.36 101.4 1248.07 101.4H1254.47C1257.67 101.4 1259.72 102.68 1261.38 105.368L1289.41 153.112C1291.08 156.056 1293.38 155.16 1293.38 151.96V107.288C1293.38 103.448 1295.56 101.4 1299.27 101.4H1304.39C1308.23 101.4 1310.28 103.576 1310.28 107.288V185.112C1310.28 188.952 1308.1 191 1304.39 191H1297.99C1294.79 191 1292.61 189.848 1290.95 187.16L1263.17 142.872C1261.51 140.184 1259.08 140.824 1259.08 144.024V185.112C1259.08 188.824 1256.9 191 1253.19 191H1248.07Z" fill="white"/>
<path opacity="0.1" d="M1178.68 107.288C1178.68 103.576 1180.86 101.4 1184.57 101.4H1222.2C1226.04 101.4 1228.09 103.576 1228.09 107.288V111C1228.09 114.84 1225.91 116.888 1222.2 116.888H1198.9C1196.86 116.888 1195.58 118.168 1195.58 120.216V133.912C1195.58 135.96 1196.86 137.24 1198.9 137.24H1219.64C1223.48 137.24 1225.53 139.416 1225.53 143.128V146.84C1225.53 150.68 1223.35 152.728 1219.64 152.728H1198.9C1196.86 152.728 1195.58 154.008 1195.58 156.056V172.184C1195.58 174.36 1196.86 175.512 1198.9 175.512H1222.2C1226.04 175.512 1228.09 177.688 1228.09 181.4V185.112C1228.09 188.952 1225.91 191 1222.2 191H1184.57C1180.73 191 1178.68 188.824 1178.68 185.112V107.288Z" fill="white"/>
<path opacity="0.1" d="M1081.18 107.288C1081.18 103.576 1083.36 101.4 1087.07 101.4H1092.19C1096.03 101.4 1098.08 103.576 1098.08 107.288V132.248C1098.08 134.424 1099.36 135.704 1101.53 135.32C1114.84 133.144 1121.37 121.24 1122.27 107.288C1122.52 103.448 1124.57 101.4 1128.28 101.4H1133.4C1137.24 101.4 1139.29 103.448 1139.16 107.416C1138.52 120.984 1135.45 132.632 1124.32 141.336C1122.52 142.744 1122.4 144.28 1124.32 145.816C1135.84 155.288 1140.19 166.296 1141.34 184.856C1141.6 188.824 1139.42 191 1135.58 191H1130.46C1126.75 191 1124.83 188.952 1124.44 185.112C1122.78 165.272 1113.05 155.16 1101.66 152.344C1099.48 151.832 1098.08 153.112 1098.08 155.416V185.112C1098.08 188.952 1095.9 191 1092.19 191H1087.07C1083.23 191 1081.18 188.824 1081.18 185.112V107.288Z" fill="white"/>
<path opacity="0.1" d="M1003.57 191C999.856 191 997.68 188.824 997.68 185.112V107.288C997.68 103.448 999.856 101.4 1003.57 101.4H1009.97C1013.17 101.4 1015.22 102.68 1016.88 105.368L1044.91 153.112C1046.58 156.056 1048.88 155.16 1048.88 151.96V107.288C1048.88 103.448 1051.06 101.4 1054.77 101.4H1059.89C1063.73 101.4 1065.78 103.576 1065.78 107.288V185.112C1065.78 188.952 1063.6 191 1059.89 191H1053.49C1050.29 191 1048.11 189.848 1046.45 187.16L1018.67 142.872C1017.01 140.184 1014.58 140.824 1014.58 144.024V185.112C1014.58 188.824 1012.4 191 1008.69 191H1003.57Z" fill="white"/>
<path opacity="0.1" d="M923.653 186.392C922.501 189.464 920.197 191 916.869 191H910.981C906.629 191 904.709 188.312 906.373 184.216L937.733 106.008C939.013 102.936 941.189 101.4 944.517 101.4H946.949C950.277 101.4 952.453 102.68 953.733 105.88L987.013 184.088C988.677 188.184 986.885 191 982.533 191H976.773C973.445 191 971.141 189.592 969.861 186.392L967.045 179.352C966.405 177.56 965.125 176.792 963.205 176.792H930.181C928.261 176.792 926.981 177.56 926.341 179.352L923.653 186.392ZM934.277 157.592C933.381 159.896 934.405 161.432 936.837 161.432H955.781C958.213 161.432 959.237 159.896 958.341 157.592L948.229 133.144C947.077 130.456 944.773 130.328 943.749 133.144L934.277 157.592Z" fill="white"/>
<path opacity="0.1" d="M863.584 101.4C885.216 101.4 896.096 113.432 896.096 132.376C896.096 143.128 892.128 151.32 884.448 156.312C882.528 157.72 882.4 159 884.192 160.536C891.616 166.68 895.456 176.152 896.736 184.984C897.376 188.824 894.944 191 891.104 191H887.136C883.552 191 881.76 189.08 880.992 185.496C879.072 176.152 872.16 164.248 857.696 162.2L856.032 162.072C853.856 161.944 852.576 163.224 852.576 165.4V185.112C852.576 188.824 850.4 191 846.688 191H841.568C837.728 191 835.68 188.824 835.68 185.112V107.288C835.68 103.448 837.856 101.4 841.568 101.4H863.584ZM863.2 147.224C885.344 147.224 885.344 116.888 864.352 116.888H855.904C853.856 116.888 852.576 118.168 852.576 120.216V143.896C852.576 145.944 853.856 147.224 855.904 147.224H863.2Z" fill="white"/>
<path opacity="0.1" d="M787.979 192.536C764.043 192.536 744.715 171.8 744.715 146.2C744.715 120.728 764.043 99.992 787.979 99.992C801.547 99.992 813.707 106.776 821.643 117.272C824.203 120.728 822.795 123.672 818.699 124.952L814.987 126.104C811.787 127.128 809.483 126.104 807.179 123.672C802.315 118.68 795.787 115.48 788.619 115.48C773.771 115.48 761.483 129.944 761.483 146.328C761.483 162.84 773.771 177.176 788.619 177.176C796.811 177.176 803.083 172.824 807.691 166.296C809.611 163.48 811.787 162.328 814.987 162.712L818.955 163.096C822.923 163.48 825.099 165.4 824.331 167.96C820.235 179.864 807.563 192.536 787.979 192.536Z" fill="white"/>
<path opacity="0.1" d="M675.318 191C671.606 191 669.43 188.824 669.43 185.112V107.288C669.43 103.448 671.606 101.4 675.318 101.4H692.214C725.11 101.4 737.526 120.728 737.526 145.944C737.526 169.496 724.982 190.616 692.214 191.128L675.318 191ZM686.326 170.648C686.326 172.696 687.478 173.976 689.654 173.976C691.702 173.976 693.878 173.976 693.878 173.976C729.206 173.976 729.334 117.912 694.39 117.912L689.654 118.04C687.606 118.04 686.326 119.32 686.326 121.368V170.648Z" fill="white"/>
<path opacity="0.1" d="M591.818 191C588.106 191 585.93 188.824 585.93 185.112V107.288C585.93 103.448 588.106 101.4 591.818 101.4H598.218C601.418 101.4 603.466 102.68 605.13 105.368L633.162 153.112C634.826 156.056 637.13 155.16 637.13 151.96V107.288C637.13 103.448 639.306 101.4 643.018 101.4H648.138C651.978 101.4 654.026 103.576 654.026 107.288V185.112C654.026 188.952 651.85 191 648.138 191H641.738C638.538 191 636.362 189.848 634.698 187.16L606.922 142.872C605.258 140.184 602.826 140.824 602.826 144.024V185.112C602.826 188.824 600.65 191 596.938 191H591.818Z" fill="white"/>
<path opacity="0.1" d="M511.903 186.392C510.751 189.464 508.447 191 505.119 191H499.231C494.879 191 492.959 188.312 494.623 184.216L525.983 106.008C527.263 102.936 529.439 101.4 532.767 101.4H535.199C538.527 101.4 540.703 102.68 541.983 105.88L575.263 184.088C576.927 188.184 575.135 191 570.783 191H565.023C561.695 191 559.391 189.592 558.111 186.392L555.295 179.352C554.655 177.56 553.375 176.792 551.455 176.792H518.431C516.511 176.792 515.231 177.56 514.591 179.352L511.903 186.392ZM522.527 157.592C521.631 159.896 522.655 161.432 525.087 161.432H544.031C546.463 161.432 547.487 159.896 546.591 157.592L536.479 133.144C535.327 130.456 533.023 130.328 531.999 133.144L522.527 157.592Z" fill="white"/>
<path opacity="0.1" d="M418.68 107.288C418.68 103.576 420.856 101.4 424.568 101.4H429.688C433.528 101.4 435.576 103.576 435.576 107.288V134.168C435.576 136.344 436.856 137.496 438.904 137.496H466.552C468.6 137.496 469.88 136.216 469.88 134.168V107.288C469.88 103.448 472.056 101.4 475.768 101.4H480.888C484.728 101.4 486.776 103.576 486.776 107.288V185.112C486.776 188.952 484.6 191 480.888 191H475.768C471.928 191 469.88 188.824 469.88 185.112V156.312C469.88 154.136 468.6 152.984 466.552 152.984H438.904C436.856 152.984 435.576 154.264 435.576 156.312V185.112C435.576 188.824 433.4 191 429.688 191H424.568C420.728 191 418.68 188.824 418.68 185.112V107.288Z" fill="white"/>
<rect x="650" y="540" width="700" height="100" rx="50" fill="#A8E95E"/>
<path d="M1259.96 570.144C1259.96 568.288 1261.05 567.2 1262.91 567.2H1281.72C1283.64 567.2 1284.67 568.288 1284.67 570.144V572C1284.67 573.92 1283.58 574.944 1281.72 574.944H1270.08C1269.05 574.944 1268.41 575.584 1268.41 576.608V583.456C1268.41 584.48 1269.05 585.12 1270.08 585.12H1280.44C1282.36 585.12 1283.39 586.208 1283.39 588.064V589.92C1283.39 591.84 1282.3 592.864 1280.44 592.864H1270.08C1269.05 592.864 1268.41 593.504 1268.41 594.528V602.592C1268.41 603.68 1269.05 604.256 1270.08 604.256H1281.72C1283.64 604.256 1284.67 605.344 1284.67 607.2V609.056C1284.67 610.976 1283.58 612 1281.72 612H1262.91C1260.99 612 1259.96 610.912 1259.96 609.056V570.144Z" fill="#2D2D2D"/>
<path d="M1221.16 612C1219.3 612 1218.21 610.912 1218.21 609.056V570.144C1218.21 568.224 1219.3 567.2 1221.16 567.2H1224.36C1225.96 567.2 1226.98 567.84 1227.81 569.184L1241.83 593.056C1242.66 594.528 1243.81 594.08 1243.81 592.48V570.144C1243.81 568.224 1244.9 567.2 1246.76 567.2H1249.32C1251.24 567.2 1252.26 568.288 1252.26 570.144V609.056C1252.26 610.976 1251.17 612 1249.32 612H1246.12C1244.52 612 1243.43 611.424 1242.6 610.08L1228.71 587.936C1227.88 586.592 1226.66 586.912 1226.66 588.512V609.056C1226.66 610.912 1225.57 612 1223.72 612H1221.16Z" fill="#2D2D2D"/>
<path d="M1202.09 570.144C1202.09 568.288 1203.18 567.2 1205.03 567.2H1207.59C1209.51 567.2 1210.54 568.288 1210.54 570.144V609.056C1210.54 610.976 1209.45 612 1207.59 612H1205.03C1203.11 612 1202.09 610.912 1202.09 609.056V570.144Z" fill="#2D2D2D"/>
<path d="M1176.39 612.768C1163.46 612.768 1153.79 602.4 1153.79 589.6C1153.79 576.864 1163.46 566.496 1175.43 566.496C1182.21 566.496 1188.29 569.888 1192.26 575.136C1193.54 576.864 1192.77 578.4 1190.79 578.976L1188.55 579.68C1186.95 580.192 1185.79 579.68 1184.64 578.464C1182.27 576.032 1179.01 574.432 1175.55 574.432C1168.26 574.432 1162.18 581.6 1162.18 589.664C1162.18 597.792 1168.26 604.896 1176.64 604.896C1183.3 604.896 1186.88 601.568 1188.55 597.984C1189.06 596.832 1188.42 596.064 1187.2 596.064H1178.82C1176.9 596.064 1175.87 594.976 1175.87 593.12V591.264C1175.87 589.344 1176.96 588.32 1178.82 588.32H1193.86C1197.63 588.32 1196.87 588.448 1196.87 597.152C1196.87 603.872 1188.03 612.768 1176.39 612.768Z" fill="#2D2D2D"/>
<path d="M1118.16 612C1116.3 612 1115.21 610.912 1115.21 609.056V570.144C1115.21 568.224 1116.3 567.2 1118.16 567.2H1121.36C1122.96 567.2 1123.98 567.84 1124.81 569.184L1138.83 593.056C1139.66 594.528 1140.81 594.08 1140.81 592.48V570.144C1140.81 568.224 1141.9 567.2 1143.76 567.2H1146.32C1148.24 567.2 1149.26 568.288 1149.26 570.144V609.056C1149.26 610.976 1148.17 612 1146.32 612H1143.12C1141.52 612 1140.43 611.424 1139.6 610.08L1125.71 587.936C1124.88 586.592 1123.66 586.912 1123.66 588.512V609.056C1123.66 610.912 1122.57 612 1120.72 612H1118.16Z" fill="#2D2D2D"/>
<path d="M1083.46 570.144C1083.46 568.288 1084.55 567.2 1086.41 567.2H1105.22C1107.14 567.2 1108.17 568.288 1108.17 570.144V572C1108.17 573.92 1107.08 574.944 1105.22 574.944H1093.58C1092.55 574.944 1091.91 575.584 1091.91 576.608V583.456C1091.91 584.48 1092.55 585.12 1093.58 585.12H1103.94C1105.86 585.12 1106.89 586.208 1106.89 588.064V589.92C1106.89 591.84 1105.8 592.864 1103.94 592.864H1093.58C1092.55 592.864 1091.91 593.504 1091.91 594.528V602.592C1091.91 603.68 1092.55 604.256 1093.58 604.256H1105.22C1107.14 604.256 1108.17 605.344 1108.17 607.2V609.056C1108.17 610.976 1107.08 612 1105.22 612H1086.41C1084.49 612 1083.46 610.912 1083.46 609.056V570.144Z" fill="#2D2D2D"/>
<path d="M1038.28 570.144C1038.28 568.288 1039.37 567.2 1041.22 567.2H1060.04C1061.96 567.2 1062.98 568.288 1062.98 570.144V572C1062.98 573.92 1061.89 574.944 1060.04 574.944H1048.39C1047.37 574.944 1046.73 575.584 1046.73 576.608V583.456C1046.73 584.48 1047.37 585.12 1048.39 585.12H1058.76C1060.68 585.12 1061.7 586.208 1061.7 588.064V589.92C1061.7 591.84 1060.61 592.864 1058.76 592.864H1048.39C1047.37 592.864 1046.73 593.504 1046.73 594.528V602.592C1046.73 603.68 1047.37 604.256 1048.39 604.256H1060.04C1061.96 604.256 1062.98 605.344 1062.98 607.2V609.056C1062.98 610.976 1061.89 612 1060.04 612H1041.22C1039.3 612 1038.28 610.912 1038.28 609.056V570.144Z" fill="#2D2D2D"/>
<path d="M991.215 610.336V568.864C991.215 567.84 991.855 567.2 992.879 567.2H998.383C999.279 567.2 999.919 567.52 1000.37 568.288L1008.69 581.856C1009.84 583.776 1011.57 583.904 1012.78 581.92L1021.29 568.288C1021.74 567.52 1022.38 567.2 1023.28 567.2H1028.78C1029.81 567.2 1030.45 567.84 1030.45 568.864L1030.57 610.336C1030.57 611.424 1030 612 1028.91 612H1023.79C1022.77 612 1022.13 611.424 1022.13 610.336V590.496C1022.13 587.68 1020.14 587.04 1018.54 589.408L1011.89 599.2C1011.18 600.288 1010.29 600.288 1009.58 599.2L1003.25 589.536C1001.65 587.168 999.663 587.744 999.663 590.624V610.336C999.663 611.36 999.087 612 997.999 612H992.879C991.855 612 991.215 611.424 991.215 610.336Z" fill="#2D2D2D"/>
<path d="M954.202 609.696C953.626 611.232 952.474 612 950.81 612H947.866C945.69 612 944.73 610.656 945.562 608.608L961.242 569.504C961.882 567.968 962.97 567.2 964.634 567.2H965.85C967.514 567.2 968.602 567.84 969.242 569.44L985.882 608.544C986.714 610.592 985.818 612 983.642 612H980.762C979.098 612 977.946 611.296 977.306 609.696L975.898 606.176C975.578 605.28 974.938 604.896 973.978 604.896H957.466C956.506 604.896 955.866 605.28 955.546 606.176L954.202 609.696ZM959.514 595.296C959.066 596.448 959.578 597.216 960.794 597.216H970.266C971.482 597.216 971.994 596.448 971.546 595.296L966.49 583.072C965.914 581.728 964.762 581.664 964.25 583.072L959.514 595.296Z" fill="#2D2D2D"/>
<path d="M923.949 612.768C911.021 612.768 901.357 602.4 901.357 589.6C901.357 576.864 911.021 566.496 922.989 566.496C929.773 566.496 935.853 569.888 939.821 575.136C941.101 576.864 940.333 578.4 938.349 578.976L936.109 579.68C934.509 580.192 933.357 579.68 932.205 578.464C929.837 576.032 926.573 574.432 923.117 574.432C915.821 574.432 909.741 581.6 909.741 589.664C909.741 597.792 915.821 604.896 924.205 604.896C930.861 604.896 934.445 601.568 936.109 597.984C936.621 596.832 935.981 596.064 934.765 596.064H926.381C924.461 596.064 923.437 594.976 923.437 593.12V591.264C923.437 589.344 924.525 588.32 926.381 588.32H941.421C945.197 588.32 944.429 588.448 944.429 597.152C944.429 603.872 935.597 612.768 923.949 612.768Z" fill="#2D2D2D"/>
<path d="M867.103 567.2C877.855 567.2 883.935 573.216 883.935 583.2C883.935 593.44 876.575 599.712 863.455 599.008C862.303 598.944 861.663 599.52 861.663 600.608V609.056C861.663 610.912 860.575 612 858.719 612H856.159C854.239 612 853.215 610.912 853.215 609.056V570.144C853.215 568.224 854.303 567.2 856.159 567.2H867.103ZM861.663 589.088C861.663 590.176 862.303 590.752 863.327 590.752H866.975C878.687 591.072 878.175 574.944 867.551 574.944H863.327C862.303 574.944 861.663 575.584 861.663 576.608V589.088Z" fill="#2D2D2D"/>
<path d="M831.79 567.2C842.542 567.2 848.622 573.216 848.622 583.2C848.622 593.44 841.262 599.712 828.142 599.008C826.99 598.944 826.35 599.52 826.35 600.608V609.056C826.35 610.912 825.262 612 823.406 612H820.846C818.926 612 817.902 610.912 817.902 609.056V570.144C817.902 568.224 818.99 567.2 820.846 567.2H831.79ZM826.35 589.088C826.35 590.176 826.99 590.752 828.014 590.752H831.662C843.374 591.072 842.862 574.944 832.238 574.944H828.014C826.99 574.944 826.35 575.584 826.35 576.608V589.088Z" fill="#2D2D2D"/>
<path d="M794.052 612.768C782.084 612.768 772.42 602.4 772.42 589.6C772.42 576.864 782.084 566.496 794.052 566.496C800.836 566.496 806.916 569.888 810.884 575.136C812.164 576.864 811.46 578.336 809.412 578.976L807.556 579.552C805.956 580.064 804.804 579.552 803.652 578.336C801.22 575.84 797.956 574.24 794.372 574.24C786.948 574.24 780.804 581.472 780.804 589.664C780.804 597.92 786.948 605.088 794.372 605.088C798.468 605.088 801.604 602.912 803.908 599.648C804.868 598.24 805.956 597.664 807.556 597.856L809.54 598.048C811.524 598.24 812.612 599.2 812.228 600.48C810.18 606.432 803.844 612.768 794.052 612.768Z" fill="#2D2D2D"/>
<path d="M723.264 609.696C722.688 611.232 721.536 612 719.872 612H716.928C714.752 612 713.792 610.656 714.624 608.608L730.304 569.504C730.944 567.968 732.032 567.2 733.696 567.2H734.912C736.576 567.2 737.664 567.84 738.304 569.44L754.944 608.544C755.776 610.592 754.88 612 752.704 612H749.824C748.16 612 747.008 611.296 746.368 609.696L744.96 606.176C744.64 605.28 744 604.896 743.04 604.896H726.528C725.568 604.896 724.928 605.28 724.608 606.176L723.264 609.696ZM728.576 595.296C728.128 596.448 728.64 597.216 729.856 597.216H739.328C740.544 597.216 741.056 596.448 740.608 595.296L735.552 583.072C734.976 581.728 733.824 581.664 733.312 583.072L728.576 595.296Z" fill="#2D2D2D"/>
</svg>
