<svg width="2000" height="900" viewBox="0 0 2000 900" fill="none" xmlns="http://www.w3.org/2000/svg">
<rect width="2000" height="900" fill="#2D2D2D"/>
<path d="M1539.68 498.288C1539.68 494.576 1541.86 492.4 1545.57 492.4H1583.2C1587.04 492.4 1589.09 494.576 1589.09 498.288V502C1589.09 505.84 1586.91 507.888 1583.2 507.888H1559.9C1557.86 507.888 1556.58 509.168 1556.58 511.216V524.912C1556.58 526.96 1557.86 528.24 1559.9 528.24H1580.64C1584.48 528.24 1586.53 530.416 1586.53 534.128V537.84C1586.53 541.68 1584.35 543.728 1580.64 543.728H1559.9C1557.86 543.728 1556.58 545.008 1556.58 547.056V563.184C1556.58 565.36 1557.86 566.512 1559.9 566.512H1583.2C1587.04 566.512 1589.09 568.688 1589.09 572.4V576.112C1589.09 579.952 1586.91 582 1583.2 582H1545.57C1541.73 582 1539.68 579.824 1539.68 576.112V498.288Z" fill="#FFEDD1"/>
<path d="M1462.07 582C1458.36 582 1456.18 579.824 1456.18 576.112V498.288C1456.18 494.448 1458.36 492.4 1462.07 492.4H1468.47C1471.67 492.4 1473.72 493.68 1475.38 496.368L1503.41 544.112C1505.08 547.056 1507.38 546.16 1507.38 542.96V498.288C1507.38 494.448 1509.56 492.4 1513.27 492.4H1518.39C1522.23 492.4 1524.28 494.576 1524.28 498.288V576.112C1524.28 579.952 1522.1 582 1518.39 582H1511.99C1508.79 582 1506.61 580.848 1504.95 578.16L1477.17 533.872C1475.51 531.184 1473.08 531.824 1473.08 535.024V576.112C1473.08 579.824 1470.9 582 1467.19 582H1462.07Z" fill="#FFEDD1"/>
<path d="M1423.93 498.288C1423.93 494.576 1426.11 492.4 1429.82 492.4H1434.94C1438.78 492.4 1440.83 494.576 1440.83 498.288V576.112C1440.83 579.952 1438.65 582 1434.94 582H1429.82C1425.98 582 1423.93 579.824 1423.93 576.112V498.288Z" fill="#FFEDD1"/>
<path d="M1372.52 583.536C1346.67 583.536 1327.34 562.8 1327.34 537.2C1327.34 511.728 1346.67 490.992 1370.6 490.992C1384.17 490.992 1396.33 497.776 1404.27 508.272C1406.83 511.728 1405.29 514.8 1401.32 515.952L1396.84 517.36C1393.64 518.384 1391.34 517.36 1389.04 514.928C1384.3 510.064 1377.77 506.864 1370.86 506.864C1356.27 506.864 1344.11 521.2 1344.11 537.328C1344.11 553.584 1356.27 567.792 1373.04 567.792C1386.35 567.792 1393.52 561.136 1396.84 553.968C1397.87 551.664 1396.59 550.128 1394.16 550.128H1377.39C1373.55 550.128 1371.5 547.952 1371.5 544.24V540.528C1371.5 536.688 1373.68 534.64 1377.39 534.64H1407.47C1415.02 534.64 1413.48 534.896 1413.48 552.304C1413.48 565.744 1395.82 583.536 1372.52 583.536Z" fill="#FFEDD1"/>
<path d="M1256.07 582C1252.36 582 1250.18 579.824 1250.18 576.112V498.288C1250.18 494.448 1252.36 492.4 1256.07 492.4H1262.47C1265.67 492.4 1267.72 493.68 1269.38 496.368L1297.41 544.112C1299.08 547.056 1301.38 546.16 1301.38 542.96V498.288C1301.38 494.448 1303.56 492.4 1307.27 492.4H1312.39C1316.23 492.4 1318.28 494.576 1318.28 498.288V576.112C1318.28 579.952 1316.1 582 1312.39 582H1305.99C1302.79 582 1300.61 580.848 1298.95 578.16L1271.17 533.872C1269.51 531.184 1267.08 531.824 1267.08 535.024V576.112C1267.08 579.824 1264.9 582 1261.19 582H1256.07Z" fill="#FFEDD1"/>
<path d="M1186.68 498.288C1186.68 494.576 1188.86 492.4 1192.57 492.4H1230.2C1234.04 492.4 1236.09 494.576 1236.09 498.288V502C1236.09 505.84 1233.91 507.888 1230.2 507.888H1206.9C1204.86 507.888 1203.58 509.168 1203.58 511.216V524.912C1203.58 526.96 1204.86 528.24 1206.9 528.24H1227.64C1231.48 528.24 1233.53 530.416 1233.53 534.128V537.84C1233.53 541.68 1231.35 543.728 1227.64 543.728H1206.9C1204.86 543.728 1203.58 545.008 1203.58 547.056V563.184C1203.58 565.36 1204.86 566.512 1206.9 566.512H1230.2C1234.04 566.512 1236.09 568.688 1236.09 572.4V576.112C1236.09 579.952 1233.91 582 1230.2 582H1192.57C1188.73 582 1186.68 579.824 1186.68 576.112V498.288Z" fill="#FFEDD1"/>
<path d="M1089.18 498.288C1089.18 494.576 1091.36 492.4 1095.07 492.4H1100.19C1104.03 492.4 1106.08 494.576 1106.08 498.288V523.248C1106.08 525.424 1107.36 526.704 1109.53 526.32C1122.84 524.144 1129.37 512.24 1130.27 498.288C1130.52 494.448 1132.57 492.4 1136.28 492.4H1141.4C1145.24 492.4 1147.29 494.448 1147.16 498.416C1146.52 511.984 1143.45 523.632 1132.32 532.336C1130.52 533.744 1130.4 535.28 1132.32 536.816C1143.84 546.288 1148.19 557.296 1149.34 575.856C1149.6 579.824 1147.42 582 1143.58 582H1138.46C1134.75 582 1132.83 579.952 1132.44 576.112C1130.78 556.272 1121.05 546.16 1109.66 543.344C1107.48 542.832 1106.08 544.112 1106.08 546.416V576.112C1106.08 579.952 1103.9 582 1100.19 582H1095.07C1091.23 582 1089.18 579.824 1089.18 576.112V498.288Z" fill="#FFEDD1"/>
<path d="M1011.57 582C1007.86 582 1005.68 579.824 1005.68 576.112V498.288C1005.68 494.448 1007.86 492.4 1011.57 492.4H1017.97C1021.17 492.4 1023.22 493.68 1024.88 496.368L1052.91 544.112C1054.58 547.056 1056.88 546.16 1056.88 542.96V498.288C1056.88 494.448 1059.06 492.4 1062.77 492.4H1067.89C1071.73 492.4 1073.78 494.576 1073.78 498.288V576.112C1073.78 579.952 1071.6 582 1067.89 582H1061.49C1058.29 582 1056.11 580.848 1054.45 578.16L1026.67 533.872C1025.01 531.184 1022.58 531.824 1022.58 535.024V576.112C1022.58 579.824 1020.4 582 1016.69 582H1011.57Z" fill="#FFEDD1"/>
<path d="M931.653 577.392C930.501 580.464 928.197 582 924.869 582H918.981C914.629 582 912.709 579.312 914.373 575.216L945.733 497.008C947.013 493.936 949.189 492.4 952.517 492.4H954.949C958.277 492.4 960.453 493.68 961.733 496.88L995.013 575.088C996.677 579.184 994.885 582 990.533 582H984.773C981.445 582 979.141 580.592 977.861 577.392L975.045 570.352C974.405 568.56 973.125 567.792 971.205 567.792H938.181C936.261 567.792 934.981 568.56 934.341 570.352L931.653 577.392ZM942.277 548.592C941.381 550.896 942.405 552.432 944.837 552.432H963.781C966.213 552.432 967.237 550.896 966.341 548.592L956.229 524.144C955.077 521.456 952.773 521.328 951.749 524.144L942.277 548.592Z" fill="#FFEDD1"/>
<path d="M871.584 492.4C893.216 492.4 904.096 504.432 904.096 523.376C904.096 534.128 900.128 542.32 892.448 547.312C890.528 548.72 890.4 550 892.192 551.536C899.616 557.68 903.456 567.152 904.736 575.984C905.376 579.824 902.944 582 899.104 582H895.136C891.552 582 889.76 580.08 888.992 576.496C887.072 567.152 880.16 555.248 865.696 553.2L864.032 553.072C861.856 552.944 860.576 554.224 860.576 556.4V576.112C860.576 579.824 858.4 582 854.688 582H849.568C845.728 582 843.68 579.824 843.68 576.112V498.288C843.68 494.448 845.856 492.4 849.568 492.4H871.584ZM871.2 538.224C893.344 538.224 893.344 507.888 872.352 507.888H863.904C861.856 507.888 860.576 509.168 860.576 511.216V534.896C860.576 536.944 861.856 538.224 863.904 538.224H871.2Z" fill="#FFEDD1"/>
<path d="M795.979 583.536C772.043 583.536 752.715 562.8 752.715 537.2C752.715 511.728 772.043 490.992 795.979 490.992C809.547 490.992 821.707 497.776 829.643 508.272C832.203 511.728 830.795 514.672 826.699 515.952L822.987 517.104C819.787 518.128 817.483 517.104 815.179 514.672C810.315 509.68 803.787 506.48 796.619 506.48C781.771 506.48 769.483 520.944 769.483 537.328C769.483 553.84 781.771 568.176 796.619 568.176C804.811 568.176 811.083 563.824 815.691 557.296C817.611 554.48 819.787 553.328 822.987 553.712L826.955 554.096C830.923 554.48 833.099 556.4 832.331 558.96C828.235 570.864 815.563 583.536 795.979 583.536Z" fill="#FFEDD1"/>
<path d="M683.318 582C679.606 582 677.43 579.824 677.43 576.112V498.288C677.43 494.448 679.606 492.4 683.318 492.4H700.214C733.11 492.4 745.526 511.728 745.526 536.944C745.526 560.496 732.982 581.616 700.214 582.128L683.318 582ZM694.326 561.648C694.326 563.696 695.478 564.976 697.654 564.976C699.702 564.976 701.878 564.976 701.878 564.976C737.206 564.976 737.334 508.912 702.39 508.912L697.654 509.04C695.606 509.04 694.326 510.32 694.326 512.368V561.648Z" fill="#FFEDD1"/>
<path d="M599.818 582C596.106 582 593.93 579.824 593.93 576.112V498.288C593.93 494.448 596.106 492.4 599.818 492.4H606.218C609.418 492.4 611.466 493.68 613.13 496.368L641.162 544.112C642.826 547.056 645.13 546.16 645.13 542.96V498.288C645.13 494.448 647.306 492.4 651.018 492.4H656.138C659.978 492.4 662.026 494.576 662.026 498.288V576.112C662.026 579.952 659.85 582 656.138 582H649.738C646.538 582 644.362 580.848 642.698 578.16L614.922 533.872C613.258 531.184 610.826 531.824 610.826 535.024V576.112C610.826 579.824 608.65 582 604.938 582H599.818Z" fill="#FFEDD1"/>
<path d="M519.903 577.392C518.751 580.464 516.447 582 513.119 582H507.231C502.879 582 500.959 579.312 502.623 575.216L533.983 497.008C535.263 493.936 537.439 492.4 540.767 492.4H543.199C546.527 492.4 548.703 493.68 549.983 496.88L583.263 575.088C584.927 579.184 583.135 582 578.783 582H573.023C569.695 582 567.391 580.592 566.111 577.392L563.295 570.352C562.655 568.56 561.375 567.792 559.455 567.792H526.431C524.511 567.792 523.231 568.56 522.591 570.352L519.903 577.392ZM530.527 548.592C529.631 550.896 530.655 552.432 533.087 552.432H552.031C554.463 552.432 555.487 550.896 554.591 548.592L544.479 524.144C543.327 521.456 541.023 521.328 539.999 524.144L530.527 548.592Z" fill="#FFEDD1"/>
<path d="M426.68 498.288C426.68 494.576 428.856 492.4 432.568 492.4H437.688C441.528 492.4 443.576 494.576 443.576 498.288V525.168C443.576 527.344 444.856 528.496 446.904 528.496H474.552C476.6 528.496 477.88 527.216 477.88 525.168V498.288C477.88 494.448 480.056 492.4 483.768 492.4H488.888C492.728 492.4 494.776 494.576 494.776 498.288V576.112C494.776 579.952 492.6 582 488.888 582H483.768C479.928 582 477.88 579.824 477.88 576.112V547.312C477.88 545.136 476.6 543.984 474.552 543.984H446.904C444.856 543.984 443.576 545.264 443.576 547.312V576.112C443.576 579.824 441.4 582 437.688 582H432.568C428.728 582 426.68 579.824 426.68 576.112V498.288Z" fill="#FFEDD1"/>
<path opacity="0.5" d="M1539.68 396.288C1539.68 392.576 1541.86 390.4 1545.57 390.4H1583.2C1587.04 390.4 1589.09 392.576 1589.09 396.288V400C1589.09 403.84 1586.91 405.888 1583.2 405.888H1559.9C1557.86 405.888 1556.58 407.168 1556.58 409.216V422.912C1556.58 424.96 1557.86 426.24 1559.9 426.24H1580.64C1584.48 426.24 1586.53 428.416 1586.53 432.128V435.84C1586.53 439.68 1584.35 441.728 1580.64 441.728H1559.9C1557.86 441.728 1556.58 443.008 1556.58 445.056V461.184C1556.58 463.36 1557.86 464.512 1559.9 464.512H1583.2C1587.04 464.512 1589.09 466.688 1589.09 470.4V474.112C1589.09 477.952 1586.91 480 1583.2 480H1545.57C1541.73 480 1539.68 477.824 1539.68 474.112V396.288Z" fill="#FFEDD1"/>
<path opacity="0.5" d="M1462.07 480C1458.36 480 1456.18 477.824 1456.18 474.112V396.288C1456.18 392.448 1458.36 390.4 1462.07 390.4H1468.47C1471.67 390.4 1473.72 391.68 1475.38 394.368L1503.41 442.112C1505.08 445.056 1507.38 444.16 1507.38 440.96V396.288C1507.38 392.448 1509.56 390.4 1513.27 390.4H1518.39C1522.23 390.4 1524.28 392.576 1524.28 396.288V474.112C1524.28 477.952 1522.1 480 1518.39 480H1511.99C1508.79 480 1506.61 478.848 1504.95 476.16L1477.17 431.872C1475.51 429.184 1473.08 429.824 1473.08 433.024V474.112C1473.08 477.824 1470.9 480 1467.19 480H1462.07Z" fill="#FFEDD1"/>
<path opacity="0.5" d="M1423.93 396.288C1423.93 392.576 1426.11 390.4 1429.82 390.4H1434.94C1438.78 390.4 1440.83 392.576 1440.83 396.288V474.112C1440.83 477.952 1438.65 480 1434.94 480H1429.82C1425.98 480 1423.93 477.824 1423.93 474.112V396.288Z" fill="#FFEDD1"/>
<path opacity="0.5" d="M1372.52 481.536C1346.67 481.536 1327.34 460.8 1327.34 435.2C1327.34 409.728 1346.67 388.992 1370.6 388.992C1384.17 388.992 1396.33 395.776 1404.27 406.272C1406.83 409.728 1405.29 412.8 1401.32 413.952L1396.84 415.36C1393.64 416.384 1391.34 415.36 1389.04 412.928C1384.3 408.064 1377.77 404.864 1370.86 404.864C1356.27 404.864 1344.11 419.2 1344.11 435.328C1344.11 451.584 1356.27 465.792 1373.04 465.792C1386.35 465.792 1393.52 459.136 1396.84 451.968C1397.87 449.664 1396.59 448.128 1394.16 448.128H1377.39C1373.55 448.128 1371.5 445.952 1371.5 442.24V438.528C1371.5 434.688 1373.68 432.64 1377.39 432.64H1407.47C1415.02 432.64 1413.48 432.896 1413.48 450.304C1413.48 463.744 1395.82 481.536 1372.52 481.536Z" fill="#FFEDD1"/>
<path opacity="0.5" d="M1256.07 480C1252.36 480 1250.18 477.824 1250.18 474.112V396.288C1250.18 392.448 1252.36 390.4 1256.07 390.4H1262.47C1265.67 390.4 1267.72 391.68 1269.38 394.368L1297.41 442.112C1299.08 445.056 1301.38 444.16 1301.38 440.96V396.288C1301.38 392.448 1303.56 390.4 1307.27 390.4H1312.39C1316.23 390.4 1318.28 392.576 1318.28 396.288V474.112C1318.28 477.952 1316.1 480 1312.39 480H1305.99C1302.79 480 1300.61 478.848 1298.95 476.16L1271.17 431.872C1269.51 429.184 1267.08 429.824 1267.08 433.024V474.112C1267.08 477.824 1264.9 480 1261.19 480H1256.07Z" fill="#FFEDD1"/>
<path opacity="0.5" d="M1186.68 396.288C1186.68 392.576 1188.86 390.4 1192.57 390.4H1230.2C1234.04 390.4 1236.09 392.576 1236.09 396.288V400C1236.09 403.84 1233.91 405.888 1230.2 405.888H1206.9C1204.86 405.888 1203.58 407.168 1203.58 409.216V422.912C1203.58 424.96 1204.86 426.24 1206.9 426.24H1227.64C1231.48 426.24 1233.53 428.416 1233.53 432.128V435.84C1233.53 439.68 1231.35 441.728 1227.64 441.728H1206.9C1204.86 441.728 1203.58 443.008 1203.58 445.056V461.184C1203.58 463.36 1204.86 464.512 1206.9 464.512H1230.2C1234.04 464.512 1236.09 466.688 1236.09 470.4V474.112C1236.09 477.952 1233.91 480 1230.2 480H1192.57C1188.73 480 1186.68 477.824 1186.68 474.112V396.288Z" fill="#FFEDD1"/>
<path opacity="0.5" d="M1089.18 396.288C1089.18 392.576 1091.36 390.4 1095.07 390.4H1100.19C1104.03 390.4 1106.08 392.576 1106.08 396.288V421.248C1106.08 423.424 1107.36 424.704 1109.53 424.32C1122.84 422.144 1129.37 410.24 1130.27 396.288C1130.52 392.448 1132.57 390.4 1136.28 390.4H1141.4C1145.24 390.4 1147.29 392.448 1147.16 396.416C1146.52 409.984 1143.45 421.632 1132.32 430.336C1130.52 431.744 1130.4 433.28 1132.32 434.816C1143.84 444.288 1148.19 455.296 1149.34 473.856C1149.6 477.824 1147.42 480 1143.58 480H1138.46C1134.75 480 1132.83 477.952 1132.44 474.112C1130.78 454.272 1121.05 444.16 1109.66 441.344C1107.48 440.832 1106.08 442.112 1106.08 444.416V474.112C1106.08 477.952 1103.9 480 1100.19 480H1095.07C1091.23 480 1089.18 477.824 1089.18 474.112V396.288Z" fill="#FFEDD1"/>
<path opacity="0.5" d="M1011.57 480C1007.86 480 1005.68 477.824 1005.68 474.112V396.288C1005.68 392.448 1007.86 390.4 1011.57 390.4H1017.97C1021.17 390.4 1023.22 391.68 1024.88 394.368L1052.91 442.112C1054.58 445.056 1056.88 444.16 1056.88 440.96V396.288C1056.88 392.448 1059.06 390.4 1062.77 390.4H1067.89C1071.73 390.4 1073.78 392.576 1073.78 396.288V474.112C1073.78 477.952 1071.6 480 1067.89 480H1061.49C1058.29 480 1056.11 478.848 1054.45 476.16L1026.67 431.872C1025.01 429.184 1022.58 429.824 1022.58 433.024V474.112C1022.58 477.824 1020.4 480 1016.69 480H1011.57Z" fill="#FFEDD1"/>
<path opacity="0.5" d="M931.653 475.392C930.501 478.464 928.197 480 924.869 480H918.981C914.629 480 912.709 477.312 914.373 473.216L945.733 395.008C947.013 391.936 949.189 390.4 952.517 390.4H954.949C958.277 390.4 960.453 391.68 961.733 394.88L995.013 473.088C996.677 477.184 994.885 480 990.533 480H984.773C981.445 480 979.141 478.592 977.861 475.392L975.045 468.352C974.405 466.56 973.125 465.792 971.205 465.792H938.181C936.261 465.792 934.981 466.56 934.341 468.352L931.653 475.392ZM942.277 446.592C941.381 448.896 942.405 450.432 944.837 450.432H963.781C966.213 450.432 967.237 448.896 966.341 446.592L956.229 422.144C955.077 419.456 952.773 419.328 951.749 422.144L942.277 446.592Z" fill="#FFEDD1"/>
<path opacity="0.5" d="M871.584 390.4C893.216 390.4 904.096 402.432 904.096 421.376C904.096 432.128 900.128 440.32 892.448 445.312C890.528 446.72 890.4 448 892.192 449.536C899.616 455.68 903.456 465.152 904.736 473.984C905.376 477.824 902.944 480 899.104 480H895.136C891.552 480 889.76 478.08 888.992 474.496C887.072 465.152 880.16 453.248 865.696 451.2L864.032 451.072C861.856 450.944 860.576 452.224 860.576 454.4V474.112C860.576 477.824 858.4 480 854.688 480H849.568C845.728 480 843.68 477.824 843.68 474.112V396.288C843.68 392.448 845.856 390.4 849.568 390.4H871.584ZM871.2 436.224C893.344 436.224 893.344 405.888 872.352 405.888H863.904C861.856 405.888 860.576 407.168 860.576 409.216V432.896C860.576 434.944 861.856 436.224 863.904 436.224H871.2Z" fill="#FFEDD1"/>
<path opacity="0.5" d="M795.979 481.536C772.043 481.536 752.715 460.8 752.715 435.2C752.715 409.728 772.043 388.992 795.979 388.992C809.547 388.992 821.707 395.776 829.643 406.272C832.203 409.728 830.795 412.672 826.699 413.952L822.987 415.104C819.787 416.128 817.483 415.104 815.179 412.672C810.315 407.68 803.787 404.48 796.619 404.48C781.771 404.48 769.483 418.944 769.483 435.328C769.483 451.84 781.771 466.176 796.619 466.176C804.811 466.176 811.083 461.824 815.691 455.296C817.611 452.48 819.787 451.328 822.987 451.712L826.955 452.096C830.923 452.48 833.099 454.4 832.331 456.96C828.235 468.864 815.563 481.536 795.979 481.536Z" fill="#FFEDD1"/>
<path opacity="0.5" d="M683.318 480C679.606 480 677.43 477.824 677.43 474.112V396.288C677.43 392.448 679.606 390.4 683.318 390.4H700.214C733.11 390.4 745.526 409.728 745.526 434.944C745.526 458.496 732.982 479.616 700.214 480.128L683.318 480ZM694.326 459.648C694.326 461.696 695.478 462.976 697.654 462.976C699.702 462.976 701.878 462.976 701.878 462.976C737.206 462.976 737.334 406.912 702.39 406.912L697.654 407.04C695.606 407.04 694.326 408.32 694.326 410.368V459.648Z" fill="#FFEDD1"/>
<path opacity="0.5" d="M599.818 480C596.106 480 593.93 477.824 593.93 474.112V396.288C593.93 392.448 596.106 390.4 599.818 390.4H606.218C609.418 390.4 611.466 391.68 613.13 394.368L641.162 442.112C642.826 445.056 645.13 444.16 645.13 440.96V396.288C645.13 392.448 647.306 390.4 651.018 390.4H656.138C659.978 390.4 662.026 392.576 662.026 396.288V474.112C662.026 477.952 659.85 480 656.138 480H649.738C646.538 480 644.362 478.848 642.698 476.16L614.922 431.872C613.258 429.184 610.826 429.824 610.826 433.024V474.112C610.826 477.824 608.65 480 604.938 480H599.818Z" fill="#FFEDD1"/>
<path opacity="0.5" d="M519.903 475.392C518.751 478.464 516.447 480 513.119 480H507.231C502.879 480 500.959 477.312 502.623 473.216L533.983 395.008C535.263 391.936 537.439 390.4 540.767 390.4H543.199C546.527 390.4 548.703 391.68 549.983 394.88L583.263 473.088C584.927 477.184 583.135 480 578.783 480H573.023C569.695 480 567.391 478.592 566.111 475.392L563.295 468.352C562.655 466.56 561.375 465.792 559.455 465.792H526.431C524.511 465.792 523.231 466.56 522.591 468.352L519.903 475.392ZM530.527 446.592C529.631 448.896 530.655 450.432 533.087 450.432H552.031C554.463 450.432 555.487 448.896 554.591 446.592L544.479 422.144C543.327 419.456 541.023 419.328 539.999 422.144L530.527 446.592Z" fill="#FFEDD1"/>
<path opacity="0.5" d="M426.68 396.288C426.68 392.576 428.856 390.4 432.568 390.4H437.688C441.528 390.4 443.576 392.576 443.576 396.288V423.168C443.576 425.344 444.856 426.496 446.904 426.496H474.552C476.6 426.496 477.88 425.216 477.88 423.168V396.288C477.88 392.448 480.056 390.4 483.768 390.4H488.888C492.728 390.4 494.776 392.576 494.776 396.288V474.112C494.776 477.952 492.6 480 488.888 480H483.768C479.928 480 477.88 477.824 477.88 474.112V445.312C477.88 443.136 476.6 441.984 474.552 441.984H446.904C444.856 441.984 443.576 443.264 443.576 445.312V474.112C443.576 477.824 441.4 480 437.688 480H432.568C428.728 480 426.68 477.824 426.68 474.112V396.288Z" fill="#FFEDD1"/>
<path opacity="0.25" d="M1539.68 294.288C1539.68 290.576 1541.86 288.4 1545.57 288.4H1583.2C1587.04 288.4 1589.09 290.576 1589.09 294.288V298C1589.09 301.84 1586.91 303.888 1583.2 303.888H1559.9C1557.86 303.888 1556.58 305.168 1556.58 307.216V320.912C1556.58 322.96 1557.86 324.24 1559.9 324.24H1580.64C1584.48 324.24 1586.53 326.416 1586.53 330.128V333.84C1586.53 337.68 1584.35 339.728 1580.64 339.728H1559.9C1557.86 339.728 1556.58 341.008 1556.58 343.056V359.184C1556.58 361.36 1557.86 362.512 1559.9 362.512H1583.2C1587.04 362.512 1589.09 364.688 1589.09 368.4V372.112C1589.09 375.952 1586.91 378 1583.2 378H1545.57C1541.73 378 1539.68 375.824 1539.68 372.112V294.288Z" fill="#FFEDD1"/>
<path opacity="0.25" d="M1462.07 378C1458.36 378 1456.18 375.824 1456.18 372.112V294.288C1456.18 290.448 1458.36 288.4 1462.07 288.4H1468.47C1471.67 288.4 1473.72 289.68 1475.38 292.368L1503.41 340.112C1505.08 343.056 1507.38 342.16 1507.38 338.96V294.288C1507.38 290.448 1509.56 288.4 1513.27 288.4H1518.39C1522.23 288.4 1524.28 290.576 1524.28 294.288V372.112C1524.28 375.952 1522.1 378 1518.39 378H1511.99C1508.79 378 1506.61 376.848 1504.95 374.16L1477.17 329.872C1475.51 327.184 1473.08 327.824 1473.08 331.024V372.112C1473.08 375.824 1470.9 378 1467.19 378H1462.07Z" fill="#FFEDD1"/>
<path opacity="0.25" d="M1423.93 294.288C1423.93 290.576 1426.11 288.4 1429.82 288.4H1434.94C1438.78 288.4 1440.83 290.576 1440.83 294.288V372.112C1440.83 375.952 1438.65 378 1434.94 378H1429.82C1425.98 378 1423.93 375.824 1423.93 372.112V294.288Z" fill="#FFEDD1"/>
<path opacity="0.25" d="M1372.52 379.536C1346.67 379.536 1327.34 358.8 1327.34 333.2C1327.34 307.728 1346.67 286.992 1370.6 286.992C1384.17 286.992 1396.33 293.776 1404.27 304.272C1406.83 307.728 1405.29 310.8 1401.32 311.952L1396.84 313.36C1393.64 314.384 1391.34 313.36 1389.04 310.928C1384.3 306.064 1377.77 302.864 1370.86 302.864C1356.27 302.864 1344.11 317.2 1344.11 333.328C1344.11 349.584 1356.27 363.792 1373.04 363.792C1386.35 363.792 1393.52 357.136 1396.84 349.968C1397.87 347.664 1396.59 346.128 1394.16 346.128H1377.39C1373.55 346.128 1371.5 343.952 1371.5 340.24V336.528C1371.5 332.688 1373.68 330.64 1377.39 330.64H1407.47C1415.02 330.64 1413.48 330.896 1413.48 348.304C1413.48 361.744 1395.82 379.536 1372.52 379.536Z" fill="#FFEDD1"/>
<path opacity="0.25" d="M1256.07 378C1252.36 378 1250.18 375.824 1250.18 372.112V294.288C1250.18 290.448 1252.36 288.4 1256.07 288.4H1262.47C1265.67 288.4 1267.72 289.68 1269.38 292.368L1297.41 340.112C1299.08 343.056 1301.38 342.16 1301.38 338.96V294.288C1301.38 290.448 1303.56 288.4 1307.27 288.4H1312.39C1316.23 288.4 1318.28 290.576 1318.28 294.288V372.112C1318.28 375.952 1316.1 378 1312.39 378H1305.99C1302.79 378 1300.61 376.848 1298.95 374.16L1271.17 329.872C1269.51 327.184 1267.08 327.824 1267.08 331.024V372.112C1267.08 375.824 1264.9 378 1261.19 378H1256.07Z" fill="#FFEDD1"/>
<path opacity="0.25" d="M1186.68 294.288C1186.68 290.576 1188.86 288.4 1192.57 288.4H1230.2C1234.04 288.4 1236.09 290.576 1236.09 294.288V298C1236.09 301.84 1233.91 303.888 1230.2 303.888H1206.9C1204.86 303.888 1203.58 305.168 1203.58 307.216V320.912C1203.58 322.96 1204.86 324.24 1206.9 324.24H1227.64C1231.48 324.24 1233.53 326.416 1233.53 330.128V333.84C1233.53 337.68 1231.35 339.728 1227.64 339.728H1206.9C1204.86 339.728 1203.58 341.008 1203.58 343.056V359.184C1203.58 361.36 1204.86 362.512 1206.9 362.512H1230.2C1234.04 362.512 1236.09 364.688 1236.09 368.4V372.112C1236.09 375.952 1233.91 378 1230.2 378H1192.57C1188.73 378 1186.68 375.824 1186.68 372.112V294.288Z" fill="#FFEDD1"/>
<path opacity="0.25" d="M1089.18 294.288C1089.18 290.576 1091.36 288.4 1095.07 288.4H1100.19C1104.03 288.4 1106.08 290.576 1106.08 294.288V319.248C1106.08 321.424 1107.36 322.704 1109.53 322.32C1122.84 320.144 1129.37 308.24 1130.27 294.288C1130.52 290.448 1132.57 288.4 1136.28 288.4H1141.4C1145.24 288.4 1147.29 290.448 1147.16 294.416C1146.52 307.984 1143.45 319.632 1132.32 328.336C1130.52 329.744 1130.4 331.28 1132.32 332.816C1143.84 342.288 1148.19 353.296 1149.34 371.856C1149.6 375.824 1147.42 378 1143.58 378H1138.46C1134.75 378 1132.83 375.952 1132.44 372.112C1130.78 352.272 1121.05 342.16 1109.66 339.344C1107.48 338.832 1106.08 340.112 1106.08 342.416V372.112C1106.08 375.952 1103.9 378 1100.19 378H1095.07C1091.23 378 1089.18 375.824 1089.18 372.112V294.288Z" fill="#FFEDD1"/>
<path opacity="0.25" d="M1011.57 378C1007.86 378 1005.68 375.824 1005.68 372.112V294.288C1005.68 290.448 1007.86 288.4 1011.57 288.4H1017.97C1021.17 288.4 1023.22 289.68 1024.88 292.368L1052.91 340.112C1054.58 343.056 1056.88 342.16 1056.88 338.96V294.288C1056.88 290.448 1059.06 288.4 1062.77 288.4H1067.89C1071.73 288.4 1073.78 290.576 1073.78 294.288V372.112C1073.78 375.952 1071.6 378 1067.89 378H1061.49C1058.29 378 1056.11 376.848 1054.45 374.16L1026.67 329.872C1025.01 327.184 1022.58 327.824 1022.58 331.024V372.112C1022.58 375.824 1020.4 378 1016.69 378H1011.57Z" fill="#FFEDD1"/>
<path opacity="0.25" d="M931.653 373.392C930.501 376.464 928.197 378 924.869 378H918.981C914.629 378 912.709 375.312 914.373 371.216L945.733 293.008C947.013 289.936 949.189 288.4 952.517 288.4H954.949C958.277 288.4 960.453 289.68 961.733 292.88L995.013 371.088C996.677 375.184 994.885 378 990.533 378H984.773C981.445 378 979.141 376.592 977.861 373.392L975.045 366.352C974.405 364.56 973.125 363.792 971.205 363.792H938.181C936.261 363.792 934.981 364.56 934.341 366.352L931.653 373.392ZM942.277 344.592C941.381 346.896 942.405 348.432 944.837 348.432H963.781C966.213 348.432 967.237 346.896 966.341 344.592L956.229 320.144C955.077 317.456 952.773 317.328 951.749 320.144L942.277 344.592Z" fill="#FFEDD1"/>
<path opacity="0.25" d="M871.584 288.4C893.216 288.4 904.096 300.432 904.096 319.376C904.096 330.128 900.128 338.32 892.448 343.312C890.528 344.72 890.4 346 892.192 347.536C899.616 353.68 903.456 363.152 904.736 371.984C905.376 375.824 902.944 378 899.104 378H895.136C891.552 378 889.76 376.08 888.992 372.496C887.072 363.152 880.16 351.248 865.696 349.2L864.032 349.072C861.856 348.944 860.576 350.224 860.576 352.4V372.112C860.576 375.824 858.4 378 854.688 378H849.568C845.728 378 843.68 375.824 843.68 372.112V294.288C843.68 290.448 845.856 288.4 849.568 288.4H871.584ZM871.2 334.224C893.344 334.224 893.344 303.888 872.352 303.888H863.904C861.856 303.888 860.576 305.168 860.576 307.216V330.896C860.576 332.944 861.856 334.224 863.904 334.224H871.2Z" fill="#FFEDD1"/>
<path opacity="0.25" d="M795.979 379.536C772.043 379.536 752.715 358.8 752.715 333.2C752.715 307.728 772.043 286.992 795.979 286.992C809.547 286.992 821.707 293.776 829.643 304.272C832.203 307.728 830.795 310.672 826.699 311.952L822.987 313.104C819.787 314.128 817.483 313.104 815.179 310.672C810.315 305.68 803.787 302.48 796.619 302.48C781.771 302.48 769.483 316.944 769.483 333.328C769.483 349.84 781.771 364.176 796.619 364.176C804.811 364.176 811.083 359.824 815.691 353.296C817.611 350.48 819.787 349.328 822.987 349.712L826.955 350.096C830.923 350.48 833.099 352.4 832.331 354.96C828.235 366.864 815.563 379.536 795.979 379.536Z" fill="#FFEDD1"/>
<path opacity="0.25" d="M683.318 378C679.606 378 677.43 375.824 677.43 372.112V294.288C677.43 290.448 679.606 288.4 683.318 288.4H700.214C733.11 288.4 745.526 307.728 745.526 332.944C745.526 356.496 732.982 377.616 700.214 378.128L683.318 378ZM694.326 357.648C694.326 359.696 695.478 360.976 697.654 360.976C699.702 360.976 701.878 360.976 701.878 360.976C737.206 360.976 737.334 304.912 702.39 304.912L697.654 305.04C695.606 305.04 694.326 306.32 694.326 308.368V357.648Z" fill="#FFEDD1"/>
<path opacity="0.25" d="M599.818 378C596.106 378 593.93 375.824 593.93 372.112V294.288C593.93 290.448 596.106 288.4 599.818 288.4H606.218C609.418 288.4 611.466 289.68 613.13 292.368L641.162 340.112C642.826 343.056 645.13 342.16 645.13 338.96V294.288C645.13 290.448 647.306 288.4 651.018 288.4H656.138C659.978 288.4 662.026 290.576 662.026 294.288V372.112C662.026 375.952 659.85 378 656.138 378H649.738C646.538 378 644.362 376.848 642.698 374.16L614.922 329.872C613.258 327.184 610.826 327.824 610.826 331.024V372.112C610.826 375.824 608.65 378 604.938 378H599.818Z" fill="#FFEDD1"/>
<path opacity="0.25" d="M519.903 373.392C518.751 376.464 516.447 378 513.119 378H507.231C502.879 378 500.959 375.312 502.623 371.216L533.983 293.008C535.263 289.936 537.439 288.4 540.767 288.4H543.199C546.527 288.4 548.703 289.68 549.983 292.88L583.263 371.088C584.927 375.184 583.135 378 578.783 378H573.023C569.695 378 567.391 376.592 566.111 373.392L563.295 366.352C562.655 364.56 561.375 363.792 559.455 363.792H526.431C524.511 363.792 523.231 364.56 522.591 366.352L519.903 373.392ZM530.527 344.592C529.631 346.896 530.655 348.432 533.087 348.432H552.031C554.463 348.432 555.487 346.896 554.591 344.592L544.479 320.144C543.327 317.456 541.023 317.328 539.999 320.144L530.527 344.592Z" fill="#FFEDD1"/>
<path opacity="0.25" d="M426.68 294.288C426.68 290.576 428.856 288.4 432.568 288.4H437.688C441.528 288.4 443.576 290.576 443.576 294.288V321.168C443.576 323.344 444.856 324.496 446.904 324.496H474.552C476.6 324.496 477.88 323.216 477.88 321.168V294.288C477.88 290.448 480.056 288.4 483.768 288.4H488.888C492.728 288.4 494.776 290.576 494.776 294.288V372.112C494.776 375.952 492.6 378 488.888 378H483.768C479.928 378 477.88 375.824 477.88 372.112V343.312C477.88 341.136 476.6 339.984 474.552 339.984H446.904C444.856 339.984 443.576 341.264 443.576 343.312V372.112C443.576 375.824 441.4 378 437.688 378H432.568C428.728 378 426.68 375.824 426.68 372.112V294.288Z" fill="#FFEDD1"/>
<path opacity="0.1" d="M1539.68 192.288C1539.68 188.576 1541.86 186.4 1545.57 186.4H1583.2C1587.04 186.4 1589.09 188.576 1589.09 192.288V196C1589.09 199.84 1586.91 201.888 1583.2 201.888H1559.9C1557.86 201.888 1556.58 203.168 1556.58 205.216V218.912C1556.58 220.96 1557.86 222.24 1559.9 222.24H1580.64C1584.48 222.24 1586.53 224.416 1586.53 228.128V231.84C1586.53 235.68 1584.35 237.728 1580.64 237.728H1559.9C1557.86 237.728 1556.58 239.008 1556.58 241.056V257.184C1556.58 259.36 1557.86 260.512 1559.9 260.512H1583.2C1587.04 260.512 1589.09 262.688 1589.09 266.4V270.112C1589.09 273.952 1586.91 276 1583.2 276H1545.57C1541.73 276 1539.68 273.824 1539.68 270.112V192.288Z" fill="#FFEDD1"/>
<path opacity="0.1" d="M1462.07 276C1458.36 276 1456.18 273.824 1456.18 270.112V192.288C1456.18 188.448 1458.36 186.4 1462.07 186.4H1468.47C1471.67 186.4 1473.72 187.68 1475.38 190.368L1503.41 238.112C1505.08 241.056 1507.38 240.16 1507.38 236.96V192.288C1507.38 188.448 1509.56 186.4 1513.27 186.4H1518.39C1522.23 186.4 1524.28 188.576 1524.28 192.288V270.112C1524.28 273.952 1522.1 276 1518.39 276H1511.99C1508.79 276 1506.61 274.848 1504.95 272.16L1477.17 227.872C1475.51 225.184 1473.08 225.824 1473.08 229.024V270.112C1473.08 273.824 1470.9 276 1467.19 276H1462.07Z" fill="#FFEDD1"/>
<path opacity="0.1" d="M1423.93 192.288C1423.93 188.576 1426.11 186.4 1429.82 186.4H1434.94C1438.78 186.4 1440.83 188.576 1440.83 192.288V270.112C1440.83 273.952 1438.65 276 1434.94 276H1429.82C1425.98 276 1423.93 273.824 1423.93 270.112V192.288Z" fill="#FFEDD1"/>
<path opacity="0.1" d="M1372.52 277.536C1346.67 277.536 1327.34 256.8 1327.34 231.2C1327.34 205.728 1346.67 184.992 1370.6 184.992C1384.17 184.992 1396.33 191.776 1404.27 202.272C1406.83 205.728 1405.29 208.8 1401.32 209.952L1396.84 211.36C1393.64 212.384 1391.34 211.36 1389.04 208.928C1384.3 204.064 1377.77 200.864 1370.86 200.864C1356.27 200.864 1344.11 215.2 1344.11 231.328C1344.11 247.584 1356.27 261.792 1373.04 261.792C1386.35 261.792 1393.52 255.136 1396.84 247.968C1397.87 245.664 1396.59 244.128 1394.16 244.128H1377.39C1373.55 244.128 1371.5 241.952 1371.5 238.24V234.528C1371.5 230.688 1373.68 228.64 1377.39 228.64H1407.47C1415.02 228.64 1413.48 228.896 1413.48 246.304C1413.48 259.744 1395.82 277.536 1372.52 277.536Z" fill="#FFEDD1"/>
<path opacity="0.1" d="M1256.07 276C1252.36 276 1250.18 273.824 1250.18 270.112V192.288C1250.18 188.448 1252.36 186.4 1256.07 186.4H1262.47C1265.67 186.4 1267.72 187.68 1269.38 190.368L1297.41 238.112C1299.08 241.056 1301.38 240.16 1301.38 236.96V192.288C1301.38 188.448 1303.56 186.4 1307.27 186.4H1312.39C1316.23 186.4 1318.28 188.576 1318.28 192.288V270.112C1318.28 273.952 1316.1 276 1312.39 276H1305.99C1302.79 276 1300.61 274.848 1298.95 272.16L1271.17 227.872C1269.51 225.184 1267.08 225.824 1267.08 229.024V270.112C1267.08 273.824 1264.9 276 1261.19 276H1256.07Z" fill="#FFEDD1"/>
<path opacity="0.1" d="M1186.68 192.288C1186.68 188.576 1188.86 186.4 1192.57 186.4H1230.2C1234.04 186.4 1236.09 188.576 1236.09 192.288V196C1236.09 199.84 1233.91 201.888 1230.2 201.888H1206.9C1204.86 201.888 1203.58 203.168 1203.58 205.216V218.912C1203.58 220.96 1204.86 222.24 1206.9 222.24H1227.64C1231.48 222.24 1233.53 224.416 1233.53 228.128V231.84C1233.53 235.68 1231.35 237.728 1227.64 237.728H1206.9C1204.86 237.728 1203.58 239.008 1203.58 241.056V257.184C1203.58 259.36 1204.86 260.512 1206.9 260.512H1230.2C1234.04 260.512 1236.09 262.688 1236.09 266.4V270.112C1236.09 273.952 1233.91 276 1230.2 276H1192.57C1188.73 276 1186.68 273.824 1186.68 270.112V192.288Z" fill="#FFEDD1"/>
<path opacity="0.1" d="M1089.18 192.288C1089.18 188.576 1091.36 186.4 1095.07 186.4H1100.19C1104.03 186.4 1106.08 188.576 1106.08 192.288V217.248C1106.08 219.424 1107.36 220.704 1109.53 220.32C1122.84 218.144 1129.37 206.24 1130.27 192.288C1130.52 188.448 1132.57 186.4 1136.28 186.4H1141.4C1145.24 186.4 1147.29 188.448 1147.16 192.416C1146.52 205.984 1143.45 217.632 1132.32 226.336C1130.52 227.744 1130.4 229.28 1132.32 230.816C1143.84 240.288 1148.19 251.296 1149.34 269.856C1149.6 273.824 1147.42 276 1143.58 276H1138.46C1134.75 276 1132.83 273.952 1132.44 270.112C1130.78 250.272 1121.05 240.16 1109.66 237.344C1107.48 236.832 1106.08 238.112 1106.08 240.416V270.112C1106.08 273.952 1103.9 276 1100.19 276H1095.07C1091.23 276 1089.18 273.824 1089.18 270.112V192.288Z" fill="#FFEDD1"/>
<path opacity="0.1" d="M1011.57 276C1007.86 276 1005.68 273.824 1005.68 270.112V192.288C1005.68 188.448 1007.86 186.4 1011.57 186.4H1017.97C1021.17 186.4 1023.22 187.68 1024.88 190.368L1052.91 238.112C1054.58 241.056 1056.88 240.16 1056.88 236.96V192.288C1056.88 188.448 1059.06 186.4 1062.77 186.4H1067.89C1071.73 186.4 1073.78 188.576 1073.78 192.288V270.112C1073.78 273.952 1071.6 276 1067.89 276H1061.49C1058.29 276 1056.11 274.848 1054.45 272.16L1026.67 227.872C1025.01 225.184 1022.58 225.824 1022.58 229.024V270.112C1022.58 273.824 1020.4 276 1016.69 276H1011.57Z" fill="#FFEDD1"/>
<path opacity="0.1" d="M931.653 271.392C930.501 274.464 928.197 276 924.869 276H918.981C914.629 276 912.709 273.312 914.373 269.216L945.733 191.008C947.013 187.936 949.189 186.4 952.517 186.4H954.949C958.277 186.4 960.453 187.68 961.733 190.88L995.013 269.088C996.677 273.184 994.885 276 990.533 276H984.773C981.445 276 979.141 274.592 977.861 271.392L975.045 264.352C974.405 262.56 973.125 261.792 971.205 261.792H938.181C936.261 261.792 934.981 262.56 934.341 264.352L931.653 271.392ZM942.277 242.592C941.381 244.896 942.405 246.432 944.837 246.432H963.781C966.213 246.432 967.237 244.896 966.341 242.592L956.229 218.144C955.077 215.456 952.773 215.328 951.749 218.144L942.277 242.592Z" fill="#FFEDD1"/>
<path opacity="0.1" d="M871.584 186.4C893.216 186.4 904.096 198.432 904.096 217.376C904.096 228.128 900.128 236.32 892.448 241.312C890.528 242.72 890.4 244 892.192 245.536C899.616 251.68 903.456 261.152 904.736 269.984C905.376 273.824 902.944 276 899.104 276H895.136C891.552 276 889.76 274.08 888.992 270.496C887.072 261.152 880.16 249.248 865.696 247.2L864.032 247.072C861.856 246.944 860.576 248.224 860.576 250.4V270.112C860.576 273.824 858.4 276 854.688 276H849.568C845.728 276 843.68 273.824 843.68 270.112V192.288C843.68 188.448 845.856 186.4 849.568 186.4H871.584ZM871.2 232.224C893.344 232.224 893.344 201.888 872.352 201.888H863.904C861.856 201.888 860.576 203.168 860.576 205.216V228.896C860.576 230.944 861.856 232.224 863.904 232.224H871.2Z" fill="#FFEDD1"/>
<path opacity="0.1" d="M795.979 277.536C772.043 277.536 752.715 256.8 752.715 231.2C752.715 205.728 772.043 184.992 795.979 184.992C809.547 184.992 821.707 191.776 829.643 202.272C832.203 205.728 830.795 208.672 826.699 209.952L822.987 211.104C819.787 212.128 817.483 211.104 815.179 208.672C810.315 203.68 803.787 200.48 796.619 200.48C781.771 200.48 769.483 214.944 769.483 231.328C769.483 247.84 781.771 262.176 796.619 262.176C804.811 262.176 811.083 257.824 815.691 251.296C817.611 248.48 819.787 247.328 822.987 247.712L826.955 248.096C830.923 248.48 833.099 250.4 832.331 252.96C828.235 264.864 815.563 277.536 795.979 277.536Z" fill="#FFEDD1"/>
<path opacity="0.1" d="M683.318 276C679.606 276 677.43 273.824 677.43 270.112V192.288C677.43 188.448 679.606 186.4 683.318 186.4H700.214C733.11 186.4 745.526 205.728 745.526 230.944C745.526 254.496 732.982 275.616 700.214 276.128L683.318 276ZM694.326 255.648C694.326 257.696 695.478 258.976 697.654 258.976C699.702 258.976 701.878 258.976 701.878 258.976C737.206 258.976 737.334 202.912 702.39 202.912L697.654 203.04C695.606 203.04 694.326 204.32 694.326 206.368V255.648Z" fill="#FFEDD1"/>
<path opacity="0.1" d="M599.818 276C596.106 276 593.93 273.824 593.93 270.112V192.288C593.93 188.448 596.106 186.4 599.818 186.4H606.218C609.418 186.4 611.466 187.68 613.13 190.368L641.162 238.112C642.826 241.056 645.13 240.16 645.13 236.96V192.288C645.13 188.448 647.306 186.4 651.018 186.4H656.138C659.978 186.4 662.026 188.576 662.026 192.288V270.112C662.026 273.952 659.85 276 656.138 276H649.738C646.538 276 644.362 274.848 642.698 272.16L614.922 227.872C613.258 225.184 610.826 225.824 610.826 229.024V270.112C610.826 273.824 608.65 276 604.938 276H599.818Z" fill="#FFEDD1"/>
<path opacity="0.1" d="M519.903 271.392C518.751 274.464 516.447 276 513.119 276H507.231C502.879 276 500.959 273.312 502.623 269.216L533.983 191.008C535.263 187.936 537.439 186.4 540.767 186.4H543.199C546.527 186.4 548.703 187.68 549.983 190.88L583.263 269.088C584.927 273.184 583.135 276 578.783 276H573.023C569.695 276 567.391 274.592 566.111 271.392L563.295 264.352C562.655 262.56 561.375 261.792 559.455 261.792H526.431C524.511 261.792 523.231 262.56 522.591 264.352L519.903 271.392ZM530.527 242.592C529.631 244.896 530.655 246.432 533.087 246.432H552.031C554.463 246.432 555.487 244.896 554.591 242.592L544.479 218.144C543.327 215.456 541.023 215.328 539.999 218.144L530.527 242.592Z" fill="#FFEDD1"/>
<path opacity="0.1" d="M426.68 192.288C426.68 188.576 428.856 186.4 432.568 186.4H437.688C441.528 186.4 443.576 188.576 443.576 192.288V219.168C443.576 221.344 444.856 222.496 446.904 222.496H474.552C476.6 222.496 477.88 221.216 477.88 219.168V192.288C477.88 188.448 480.056 186.4 483.768 186.4H488.888C492.728 186.4 494.776 188.576 494.776 192.288V270.112C494.776 273.952 492.6 276 488.888 276H483.768C479.928 276 477.88 273.824 477.88 270.112V241.312C477.88 239.136 476.6 237.984 474.552 237.984H446.904C444.856 237.984 443.576 239.264 443.576 241.312V270.112C443.576 273.824 441.4 276 437.688 276H432.568C428.728 276 426.68 273.824 426.68 270.112V192.288Z" fill="#FFEDD1"/>
<rect x="664" y="626" width="698" height="98" rx="49" stroke="#FFEDD1" stroke-width="2"/>
<path d="M1178.53 655.144C1178.53 653.288 1179.62 652.2 1181.47 652.2H1200.29C1202.21 652.2 1203.23 653.288 1203.23 655.144V657C1203.23 658.92 1202.14 659.944 1200.29 659.944H1188.64C1187.62 659.944 1186.98 660.584 1186.98 661.608V668.456C1186.98 669.48 1187.62 670.12 1188.64 670.12H1199.01C1200.93 670.12 1201.95 671.208 1201.95 673.064V674.92C1201.95 676.84 1200.86 677.864 1199.01 677.864H1188.64C1187.62 677.864 1186.98 678.504 1186.98 679.528V687.592C1186.98 688.68 1187.62 689.256 1188.64 689.256H1200.29C1202.21 689.256 1203.23 690.344 1203.23 692.2V694.056C1203.23 695.976 1202.14 697 1200.29 697H1181.47C1179.55 697 1178.53 695.912 1178.53 694.056V655.144Z" fill="#FFEDD1"/>
<path d="M1139.72 697C1137.87 697 1136.78 695.912 1136.78 694.056V655.144C1136.78 653.224 1137.87 652.2 1139.72 652.2H1142.92C1144.52 652.2 1145.55 652.84 1146.38 654.184L1160.39 678.056C1161.23 679.528 1162.38 679.08 1162.38 677.48V655.144C1162.38 653.224 1163.47 652.2 1165.32 652.2H1167.88C1169.8 652.2 1170.83 653.288 1170.83 655.144V694.056C1170.83 695.976 1169.74 697 1167.88 697H1164.68C1163.08 697 1161.99 696.424 1161.16 695.08L1147.27 672.936C1146.44 671.592 1145.23 671.912 1145.23 673.512V694.056C1145.23 695.912 1144.14 697 1142.28 697H1139.72Z" fill="#FFEDD1"/>
<path d="M1120.65 655.144C1120.65 653.288 1121.74 652.2 1123.6 652.2H1126.16C1128.08 652.2 1129.1 653.288 1129.1 655.144V694.056C1129.1 695.976 1128.01 697 1126.16 697H1123.6C1121.68 697 1120.65 695.912 1120.65 694.056V655.144Z" fill="#FFEDD1"/>
<path d="M1094.95 697.768C1082.02 697.768 1072.36 687.4 1072.36 674.6C1072.36 661.864 1082.02 651.496 1093.99 651.496C1100.77 651.496 1106.85 654.888 1110.82 660.136C1112.1 661.864 1111.33 663.4 1109.35 663.976L1107.11 664.68C1105.51 665.192 1104.36 664.68 1103.21 663.464C1100.84 661.032 1097.57 659.432 1094.12 659.432C1086.82 659.432 1080.74 666.6 1080.74 674.664C1080.74 682.792 1086.82 689.896 1095.21 689.896C1101.86 689.896 1105.45 686.568 1107.11 682.984C1107.62 681.832 1106.98 681.064 1105.77 681.064H1097.38C1095.46 681.064 1094.44 679.976 1094.44 678.12V676.264C1094.44 674.344 1095.53 673.32 1097.38 673.32H1112.42C1116.2 673.32 1115.43 673.448 1115.43 682.152C1115.43 688.872 1106.6 697.768 1094.95 697.768Z" fill="#FFEDD1"/>
<path d="M1036.72 697C1034.87 697 1033.78 695.912 1033.78 694.056V655.144C1033.78 653.224 1034.87 652.2 1036.72 652.2H1039.92C1041.52 652.2 1042.55 652.84 1043.38 654.184L1057.39 678.056C1058.23 679.528 1059.38 679.08 1059.38 677.48V655.144C1059.38 653.224 1060.47 652.2 1062.32 652.2H1064.88C1066.8 652.2 1067.83 653.288 1067.83 655.144V694.056C1067.83 695.976 1066.74 697 1064.88 697H1061.68C1060.08 697 1058.99 696.424 1058.16 695.08L1044.27 672.936C1043.44 671.592 1042.23 671.912 1042.23 673.512V694.056C1042.23 695.912 1041.14 697 1039.28 697H1036.72Z" fill="#FFEDD1"/>
<path d="M1002.03 655.144C1002.03 653.288 1003.12 652.2 1004.97 652.2H1023.79C1025.71 652.2 1026.73 653.288 1026.73 655.144V657C1026.73 658.92 1025.64 659.944 1023.79 659.944H1012.14C1011.12 659.944 1010.48 660.584 1010.48 661.608V668.456C1010.48 669.48 1011.12 670.12 1012.14 670.12H1022.51C1024.43 670.12 1025.45 671.208 1025.45 673.064V674.92C1025.45 676.84 1024.36 677.864 1022.51 677.864H1012.14C1011.12 677.864 1010.48 678.504 1010.48 679.528V687.592C1010.48 688.68 1011.12 689.256 1012.14 689.256H1023.79C1025.71 689.256 1026.73 690.344 1026.73 692.2V694.056C1026.73 695.976 1025.64 697 1023.79 697H1004.97C1003.05 697 1002.03 695.912 1002.03 694.056V655.144Z" fill="#FFEDD1"/>
<path d="M956.84 655.144C956.84 653.288 957.928 652.2 959.784 652.2H978.6C980.52 652.2 981.544 653.288 981.544 655.144V657C981.544 658.92 980.456 659.944 978.6 659.944H966.952C965.928 659.944 965.288 660.584 965.288 661.608V668.456C965.288 669.48 965.928 670.12 966.952 670.12H977.32C979.24 670.12 980.264 671.208 980.264 673.064V674.92C980.264 676.84 979.176 677.864 977.32 677.864H966.952C965.928 677.864 965.288 678.504 965.288 679.528V687.592C965.288 688.68 965.928 689.256 966.952 689.256H978.6C980.52 689.256 981.544 690.344 981.544 692.2V694.056C981.544 695.976 980.456 697 978.6 697H959.784C957.864 697 956.84 695.912 956.84 694.056V655.144Z" fill="#FFEDD1"/>
<path d="M909.777 695.336V653.864C909.777 652.84 910.417 652.2 911.441 652.2H916.945C917.841 652.2 918.481 652.52 918.929 653.288L927.249 666.856C928.401 668.776 930.129 668.904 931.345 666.92L939.857 653.288C940.305 652.52 940.945 652.2 941.841 652.2H947.345C948.369 652.2 949.009 652.84 949.009 653.864L949.137 695.336C949.137 696.424 948.561 697 947.473 697H942.353C941.329 697 940.689 696.424 940.689 695.336V675.496C940.689 672.68 938.705 672.04 937.105 674.408L930.449 684.2C929.745 685.288 928.849 685.288 928.145 684.2L921.809 674.536C920.209 672.168 918.225 672.744 918.225 675.624V695.336C918.225 696.36 917.649 697 916.561 697H911.441C910.417 697 909.777 696.424 909.777 695.336Z" fill="#FFEDD1"/>
<path d="M872.764 694.696C872.188 696.232 871.036 697 869.372 697H866.428C864.252 697 863.292 695.656 864.124 693.608L879.804 654.504C880.444 652.968 881.532 652.2 883.196 652.2H884.412C886.076 652.2 887.164 652.84 887.804 654.44L904.444 693.544C905.276 695.592 904.38 697 902.204 697H899.324C897.66 697 896.508 696.296 895.868 694.696L894.46 691.176C894.14 690.28 893.5 689.896 892.54 689.896H876.028C875.068 689.896 874.428 690.28 874.108 691.176L872.764 694.696ZM878.076 680.296C877.628 681.448 878.14 682.216 879.356 682.216H888.828C890.044 682.216 890.556 681.448 890.108 680.296L885.052 668.072C884.476 666.728 883.324 666.664 882.812 668.072L878.076 680.296Z" fill="#FFEDD1"/>
<path d="M842.512 697.768C829.584 697.768 819.92 687.4 819.92 674.6C819.92 661.864 829.584 651.496 841.552 651.496C848.336 651.496 854.416 654.888 858.384 660.136C859.664 661.864 858.896 663.4 856.912 663.976L854.672 664.68C853.072 665.192 851.92 664.68 850.768 663.464C848.4 661.032 845.136 659.432 841.68 659.432C834.384 659.432 828.304 666.6 828.304 674.664C828.304 682.792 834.384 689.896 842.768 689.896C849.424 689.896 853.008 686.568 854.672 682.984C855.184 681.832 854.544 681.064 853.328 681.064H844.944C843.024 681.064 842 679.976 842 678.12V676.264C842 674.344 843.088 673.32 844.944 673.32H859.984C863.76 673.32 862.992 673.448 862.992 682.152C862.992 688.872 854.16 697.768 842.512 697.768Z" fill="#FFEDD1"/>
<path d="M1177.53 694.056V655.144C1177.53 654.021 1177.86 653.005 1178.6 652.269C1179.33 651.533 1180.35 651.2 1181.47 651.2V652.2L1181.13 652.213C1179.48 652.339 1178.53 653.404 1178.53 655.144V694.056C1178.53 695.796 1179.43 696.861 1181.12 696.987L1181.47 697H1200.29C1202.14 697 1203.23 695.976 1203.23 694.056V692.2C1203.23 690.344 1202.21 689.256 1200.29 689.256V688.256C1201.43 688.256 1202.46 688.585 1203.19 689.331C1203.92 690.074 1204.23 691.094 1204.23 692.2V694.056C1204.23 695.202 1203.9 696.227 1203.16 696.961C1202.41 697.693 1201.39 698 1200.29 698H1181.47C1180.33 698 1179.3 697.672 1178.57 696.926C1177.83 696.182 1177.53 695.162 1177.53 694.056ZM1200.29 688.256V689.256H1188.64V688.256H1200.29ZM1186.98 687.592V679.528C1186.98 678.568 1187.54 677.945 1188.45 677.871L1188.64 677.864H1199.01L1199.35 677.852C1201 677.732 1201.95 676.72 1201.95 674.92V673.064C1201.95 671.325 1201.05 670.259 1199.36 670.133L1199.01 670.12V669.12C1200.15 669.12 1201.18 669.448 1201.91 670.194C1202.64 670.938 1202.95 671.958 1202.95 673.064V674.92C1202.95 676.067 1202.62 677.091 1201.88 677.825C1201.13 678.557 1200.11 678.864 1199.01 678.864H1188.64C1188.34 678.864 1188.2 678.954 1188.13 679.02C1188.07 679.085 1187.98 679.227 1187.98 679.528V687.592C1187.98 687.939 1188.07 688.069 1188.12 688.115C1188.17 688.166 1188.31 688.256 1188.64 688.256V689.256L1188.45 689.249C1187.6 689.186 1187.05 688.686 1186.98 687.79L1186.98 687.592ZM1199.01 669.12V670.12H1188.64V669.12H1199.01ZM1186.98 668.456V661.608C1186.98 660.648 1187.54 660.025 1188.45 659.951L1188.64 659.944H1200.29L1200.63 659.932C1202.28 659.812 1203.23 658.8 1203.23 657V655.144C1203.23 653.404 1202.33 652.339 1200.64 652.213L1200.29 652.2V651.2C1201.43 651.2 1202.46 651.528 1203.19 652.274C1203.92 653.018 1204.23 654.037 1204.23 655.144V657C1204.23 658.146 1203.9 659.17 1203.16 659.904C1202.41 660.636 1201.39 660.944 1200.29 660.944H1188.64C1188.34 660.944 1188.2 661.033 1188.13 661.099C1188.07 661.164 1187.98 661.307 1187.98 661.608V668.456C1187.98 668.757 1188.07 668.9 1188.13 668.965C1188.2 669.03 1188.34 669.12 1188.64 669.12V670.12L1188.45 670.112C1187.6 670.043 1187.05 669.497 1186.98 668.644L1186.98 668.456ZM1200.29 651.2V652.2H1181.47V651.2H1200.29Z" fill="#FFEDD1"/>
<path d="M1135.78 694.056V655.144C1135.78 653.997 1136.11 652.973 1136.85 652.239C1137.6 651.508 1138.62 651.2 1139.72 651.2V652.2L1139.38 652.212C1137.73 652.331 1136.78 653.344 1136.78 655.144V694.056C1136.78 695.796 1137.73 696.861 1139.38 696.987L1139.72 697H1142.28C1144.02 697 1145.09 696.044 1145.21 694.395L1145.23 694.056V673.512C1145.23 671.912 1146.44 671.592 1147.27 672.936L1161.16 695.08C1161.94 696.34 1162.95 696.925 1164.39 696.993L1164.68 697H1167.88L1168.22 696.988C1169.87 696.869 1170.83 695.856 1170.83 694.056V655.144C1170.83 653.404 1169.93 652.339 1168.23 652.213L1167.88 652.2V651.2C1169.03 651.2 1170.05 651.528 1170.79 652.274C1171.52 653.018 1171.83 654.037 1171.83 655.144V694.056C1171.83 695.202 1171.5 696.227 1170.75 696.961C1170.01 697.692 1168.99 698 1167.88 698H1164.68C1163.76 698 1162.91 697.833 1162.16 697.423C1161.4 697.012 1160.8 696.396 1160.31 695.611L1146.43 673.468L1146.42 673.462C1146.36 673.36 1146.3 673.284 1146.25 673.229C1146.24 673.301 1146.23 673.395 1146.23 673.512V694.056C1146.23 695.178 1145.89 696.194 1145.16 696.931C1144.42 697.667 1143.4 698 1142.28 698H1139.72C1138.6 698 1137.58 697.667 1136.85 696.931C1136.11 696.194 1135.78 695.178 1135.78 694.056ZM1142.92 651.2C1143.86 651.2 1144.7 651.39 1145.44 651.825C1146.18 652.258 1146.75 652.89 1147.23 653.657L1147.23 653.668L1147.24 653.678L1161.26 677.55L1161.26 677.563C1161.3 677.623 1161.33 677.676 1161.36 677.721C1161.37 677.651 1161.38 677.572 1161.38 677.48V655.144C1161.38 653.997 1161.71 652.973 1162.45 652.239C1163.2 651.508 1164.21 651.2 1165.32 651.2V652.2L1164.98 652.212C1163.33 652.331 1162.38 653.344 1162.38 655.144V677.48L1162.36 677.767C1162.24 679.038 1161.31 679.39 1160.55 678.31L1160.39 678.056L1146.38 654.184C1145.6 652.924 1144.65 652.282 1143.21 652.207L1142.92 652.2V651.2ZM1167.88 651.2V652.2H1165.32V651.2H1167.88ZM1142.92 651.2V652.2H1139.72V651.2H1142.92Z" fill="#FFEDD1"/>
<path d="M1119.65 694.056V655.144C1119.65 654.021 1119.99 653.005 1120.72 652.269C1121.46 651.533 1122.47 651.2 1123.6 651.2V652.2L1123.26 652.213C1121.61 652.339 1120.65 653.404 1120.65 655.144V694.056C1120.65 695.796 1121.55 696.861 1123.25 696.987L1123.6 697H1126.16C1127.9 697 1128.96 696.1 1129.09 694.405L1129.1 694.056V655.144C1129.1 653.404 1128.2 652.339 1126.51 652.213L1126.16 652.2V651.2C1127.3 651.2 1128.33 651.528 1129.06 652.274C1129.79 653.018 1130.1 654.037 1130.1 655.144V694.056C1130.1 695.202 1129.77 696.227 1129.03 696.961C1128.28 697.693 1127.26 698 1126.16 698H1123.6C1122.45 698 1121.43 697.672 1120.69 696.926C1119.96 696.182 1119.65 695.162 1119.65 694.056ZM1126.16 651.2V652.2H1123.6V651.2H1126.16Z" fill="#FFEDD1"/>
<path d="M1071.36 674.6C1071.36 661.376 1081.41 650.496 1093.99 650.496C1100.9 650.496 1107.08 653.842 1111.22 659.025L1111.62 659.533L1111.62 659.541C1112.41 660.595 1112.69 661.783 1112.23 662.873C1111.79 663.923 1110.79 664.599 1109.63 664.937L1107.41 665.632L1107.41 665.633C1106.44 665.944 1105.53 665.962 1104.67 665.666C1103.83 665.379 1103.12 664.827 1102.49 664.161L1102.07 663.746C1099.9 661.716 1097.07 660.432 1094.12 660.432C1087.5 660.432 1081.74 667.016 1081.74 674.664C1081.74 682.32 1087.45 688.896 1095.21 688.896V689.896L1094.81 689.891C1086.76 689.677 1080.93 682.886 1080.75 675.044L1080.74 674.664C1080.74 666.6 1086.82 659.432 1094.12 659.432C1097.57 659.432 1100.84 661.032 1103.21 663.464C1104.36 664.68 1105.51 665.192 1107.11 664.68L1109.35 663.976C1111.33 663.4 1112.1 661.864 1110.82 660.136C1106.98 655.052 1101.15 651.71 1094.62 651.506L1093.99 651.496C1082.02 651.496 1072.36 661.864 1072.36 674.6C1072.36 687.4 1082.02 697.767 1094.95 697.768C1106.42 697.768 1115.15 689.148 1115.42 682.469L1115.43 682.152C1115.43 673.992 1116.1 673.369 1113.08 673.323L1112.42 673.32V672.32C1113.3 672.32 1114.15 672.317 1114.79 672.524C1115.16 672.642 1115.51 672.839 1115.79 673.164C1116.06 673.48 1116.22 673.853 1116.31 674.229C1116.49 674.937 1116.5 675.904 1116.49 677.11C1116.48 678.373 1116.43 679.979 1116.43 682.152C1116.43 685.915 1113.99 690.074 1110.2 693.247C1106.37 696.447 1101.03 698.768 1094.95 698.768C1081.43 698.767 1071.36 687.915 1071.36 674.6ZM1093.44 678.12V676.264C1093.44 675.117 1093.77 674.094 1094.51 673.359C1095.26 672.628 1096.28 672.32 1097.38 672.32V673.32L1097.04 673.332C1095.39 673.451 1094.44 674.464 1094.44 676.264V678.12L1094.45 678.459C1094.56 679.998 1095.45 680.934 1097.03 681.052L1097.38 681.064H1105.77C1106.98 681.065 1107.62 681.832 1107.11 682.984C1105.45 686.568 1101.86 689.896 1095.21 689.896V688.896C1101.44 688.896 1104.69 685.822 1106.2 682.57C1106.28 682.392 1106.29 682.28 1106.29 682.228C1106.29 682.202 1106.28 682.19 1106.28 682.188V682.186C1106.28 682.185 1106.28 682.184 1106.28 682.182C1106.27 682.179 1106.27 682.176 1106.26 682.171C1106.25 682.161 1106.23 682.145 1106.19 682.129C1106.1 682.096 1105.97 682.064 1105.77 682.064H1097.38C1096.24 682.064 1095.21 681.735 1094.48 680.989C1093.75 680.246 1093.44 679.227 1093.44 678.12ZM1112.42 672.32V673.32H1097.38V672.32H1112.42Z" fill="#FFEDD1"/>
<path d="M1032.78 694.056V655.144C1032.78 653.997 1033.11 652.973 1033.85 652.239C1034.6 651.508 1035.62 651.2 1036.72 651.2V652.2L1036.38 652.212C1034.73 652.331 1033.78 653.344 1033.78 655.144V694.056C1033.78 695.796 1034.73 696.861 1036.38 696.987L1036.72 697H1039.28C1041.02 697 1042.09 696.044 1042.21 694.395L1042.23 694.056V673.512C1042.23 671.912 1043.44 671.592 1044.27 672.936L1058.16 695.08C1058.94 696.34 1059.95 696.925 1061.39 696.993L1061.68 697H1064.88L1065.22 696.988C1066.87 696.869 1067.83 695.856 1067.83 694.056V655.144C1067.83 653.404 1066.93 652.339 1065.23 652.213L1064.88 652.2V651.2C1066.03 651.2 1067.05 651.528 1067.79 652.274C1068.52 653.018 1068.83 654.037 1068.83 655.144V694.056C1068.83 695.202 1068.5 696.227 1067.75 696.961C1067.01 697.692 1065.99 698 1064.88 698H1061.68C1060.76 698 1059.91 697.833 1059.16 697.423C1058.4 697.012 1057.8 696.396 1057.31 695.611L1043.43 673.468L1043.42 673.462C1043.36 673.36 1043.3 673.284 1043.25 673.229C1043.24 673.301 1043.23 673.395 1043.23 673.512V694.056C1043.23 695.178 1042.89 696.194 1042.16 696.931C1041.42 697.667 1040.4 698 1039.28 698H1036.72C1035.6 698 1034.58 697.667 1033.85 696.931C1033.11 696.194 1032.78 695.178 1032.78 694.056ZM1039.92 651.2C1040.86 651.2 1041.7 651.39 1042.44 651.825C1043.18 652.258 1043.75 652.89 1044.23 653.657L1044.23 653.668L1044.24 653.678L1058.26 677.55L1058.26 677.563C1058.3 677.623 1058.33 677.676 1058.36 677.721C1058.37 677.651 1058.38 677.572 1058.38 677.48V655.144C1058.38 653.997 1058.71 652.973 1059.45 652.239C1060.2 651.508 1061.21 651.2 1062.32 651.2V652.2L1061.98 652.212C1060.33 652.331 1059.38 653.344 1059.38 655.144V677.48L1059.36 677.767C1059.24 679.038 1058.31 679.39 1057.55 678.31L1057.39 678.056L1043.38 654.184C1042.6 652.924 1041.65 652.282 1040.21 652.207L1039.92 652.2V651.2ZM1064.88 651.2V652.2H1062.32V651.2H1064.88ZM1039.92 651.2V652.2H1036.72V651.2H1039.92Z" fill="#FFEDD1"/>
<path d="M1001.03 694.056V655.144C1001.03 654.021 1001.36 653.005 1002.1 652.269C1002.83 651.533 1003.85 651.2 1004.97 651.2V652.2L1004.63 652.213C1002.98 652.339 1002.03 653.404 1002.03 655.144V694.056C1002.03 695.796 1002.93 696.861 1004.62 696.987L1004.97 697H1023.79C1025.64 697 1026.73 695.976 1026.73 694.056V692.2C1026.73 690.344 1025.71 689.256 1023.79 689.256V688.256C1024.93 688.256 1025.96 688.585 1026.69 689.331C1027.42 690.074 1027.73 691.094 1027.73 692.2V694.056C1027.73 695.202 1027.4 696.227 1026.66 696.961C1025.91 697.693 1024.89 698 1023.79 698H1004.97C1003.83 698 1002.8 697.672 1002.07 696.926C1001.33 696.182 1001.03 695.162 1001.03 694.056ZM1023.79 688.256V689.256H1012.14V688.256H1023.79ZM1010.48 687.592V679.528C1010.48 678.568 1011.04 677.945 1011.95 677.871L1012.14 677.864H1022.51L1022.85 677.852C1024.5 677.732 1025.45 676.72 1025.45 674.92V673.064C1025.45 671.325 1024.55 670.259 1022.86 670.133L1022.51 670.12V669.12C1023.65 669.12 1024.68 669.448 1025.41 670.194C1026.14 670.938 1026.45 671.958 1026.45 673.064V674.92C1026.45 676.067 1026.12 677.091 1025.38 677.825C1024.63 678.557 1023.61 678.864 1022.51 678.864H1012.14C1011.84 678.864 1011.7 678.954 1011.63 679.02C1011.57 679.085 1011.48 679.227 1011.48 679.528V687.592C1011.48 687.939 1011.57 688.069 1011.62 688.115C1011.67 688.166 1011.81 688.256 1012.14 688.256V689.256L1011.95 689.249C1011.1 689.186 1010.55 688.686 1010.48 687.79L1010.48 687.592ZM1022.51 669.12V670.12H1012.14V669.12H1022.51ZM1010.48 668.456V661.608C1010.48 660.648 1011.04 660.025 1011.95 659.951L1012.14 659.944H1023.79L1024.13 659.932C1025.78 659.812 1026.73 658.8 1026.73 657V655.144C1026.73 653.404 1025.83 652.339 1024.14 652.213L1023.79 652.2V651.2C1024.93 651.2 1025.96 651.528 1026.69 652.274C1027.42 653.018 1027.73 654.037 1027.73 655.144V657C1027.73 658.146 1027.4 659.17 1026.66 659.904C1025.91 660.636 1024.89 660.944 1023.79 660.944H1012.14C1011.84 660.944 1011.7 661.033 1011.63 661.099C1011.57 661.164 1011.48 661.307 1011.48 661.608V668.456C1011.48 668.757 1011.57 668.9 1011.63 668.965C1011.7 669.03 1011.84 669.12 1012.14 669.12V670.12L1011.95 670.112C1011.1 670.043 1010.55 669.497 1010.48 668.644L1010.48 668.456ZM1023.79 651.2V652.2H1004.97V651.2H1023.79Z" fill="#FFEDD1"/>
<path d="M955.84 694.056V655.144C955.84 654.021 956.173 653.005 956.909 652.269C957.645 651.533 958.662 651.2 959.784 651.2V652.2L959.445 652.213C957.796 652.339 956.84 653.404 956.84 655.144V694.056C956.84 695.796 957.74 696.861 959.435 696.987L959.784 697H978.6C980.456 697 981.544 695.976 981.544 694.056V692.2C981.544 690.344 980.52 689.256 978.6 689.256V688.256C979.746 688.256 980.771 688.585 981.505 689.331C982.236 690.074 982.544 691.094 982.544 692.2V694.056C982.544 695.202 982.216 696.227 981.47 696.961C980.726 697.693 979.706 698 978.6 698H959.784C958.638 698 957.613 697.672 956.879 696.926C956.147 696.182 955.84 695.162 955.84 694.056ZM978.6 688.256V689.256H966.952V688.256H978.6ZM965.288 687.592V679.528C965.288 678.568 965.851 677.945 966.765 677.871L966.952 677.864H977.32L977.659 677.852C979.308 677.732 980.264 676.72 980.264 674.92V673.064C980.264 671.325 979.364 670.259 977.67 670.133L977.32 670.12V669.12C978.467 669.12 979.49 669.448 980.225 670.194C980.956 670.938 981.264 671.958 981.264 673.064V674.92C981.264 676.067 980.936 677.091 980.189 677.825C979.446 678.557 978.427 678.864 977.32 678.864H966.952C966.651 678.864 966.509 678.954 966.443 679.02C966.378 679.085 966.288 679.227 966.288 679.528V687.592C966.288 687.939 966.385 688.069 966.433 688.115C966.485 688.166 966.623 688.256 966.952 688.256V689.256L966.765 689.249C965.912 689.186 965.365 688.686 965.296 687.79L965.288 687.592ZM977.32 669.12V670.12H966.952V669.12H977.32ZM965.288 668.456V661.608C965.288 660.648 965.851 660.025 966.765 659.951L966.952 659.944H978.6L978.938 659.932C980.588 659.812 981.544 658.8 981.544 657V655.144C981.544 653.404 980.644 652.339 978.949 652.213L978.6 652.2V651.2C979.746 651.2 980.771 651.528 981.505 652.274C982.236 653.018 982.544 654.037 982.544 655.144V657C982.544 658.146 982.216 659.17 981.47 659.904C980.726 660.636 979.706 660.944 978.6 660.944H966.952C966.652 660.944 966.509 661.033 966.443 661.099C966.378 661.164 966.288 661.307 966.288 661.608V668.456C966.288 668.757 966.378 668.9 966.443 668.965C966.509 669.03 966.651 669.12 966.952 669.12V670.12L966.765 670.112C965.912 670.043 965.365 669.497 965.296 668.644L965.288 668.456ZM978.6 651.2V652.2H959.784V651.2H978.6Z" fill="#FFEDD1"/>
<path d="M939.689 695.336V675.496C939.689 674.217 939.244 673.976 939.201 673.963C939.164 673.951 938.664 673.889 937.935 674.968L937.933 674.97L931.286 684.748C930.853 685.416 930.188 686.015 929.298 686.016C928.405 686.016 927.739 685.413 927.306 684.743V684.742L920.98 675.095V675.096C920.247 674.01 919.741 674.06 919.704 674.07C919.678 674.078 919.226 674.299 919.226 675.624V695.336C919.226 696.031 919.028 696.725 918.519 697.249C918.005 697.778 917.302 698 916.562 698H911.441C910.747 698 910.052 697.802 909.528 697.293C909 696.779 908.777 696.077 908.777 695.336V653.864C908.777 653.141 909.008 652.451 909.519 651.94C910.029 651.43 910.719 651.2 911.441 651.2V652.2L911.254 652.207C910.34 652.281 909.777 652.904 909.777 653.864V695.336C909.777 696.424 910.417 697 911.441 697H916.562L916.76 696.992C917.655 696.923 918.156 696.376 918.219 695.523L918.226 695.336V675.624C918.226 672.744 920.21 672.168 921.81 674.536L928.146 684.2C928.849 685.288 929.745 685.288 930.449 684.2L937.105 674.408C938.705 672.04 940.689 672.68 940.689 675.496V695.336C940.689 696.356 941.252 696.926 942.166 696.993L942.354 697H947.474L947.672 696.993C948.567 696.93 949.068 696.43 949.131 695.534L949.138 695.336L949.01 653.864C949.01 652.904 948.447 652.281 947.533 652.207L947.346 652.2V651.2C948.068 651.2 948.758 651.43 949.269 651.94C949.779 652.451 950.009 653.139 950.01 653.861L950.138 695.333V695.336C950.138 696.049 949.947 696.757 949.421 697.283C948.895 697.809 948.186 698 947.474 698H942.354C941.659 698 940.964 697.802 940.44 697.293C939.912 696.779 939.689 696.077 939.689 695.336ZM941.842 652.2L941.677 652.204C940.866 652.242 940.277 652.568 939.857 653.288L931.346 666.92L931.23 667.1C930.061 668.837 928.472 668.725 927.359 667.03L927.249 666.856L918.93 653.288C918.51 652.568 917.921 652.242 917.11 652.204L916.945 652.2V651.2C917.512 651.2 918.068 651.302 918.578 651.575C919.088 651.849 919.481 652.258 919.781 652.766H919.782L928.102 666.333L928.107 666.342C928.594 667.152 929.056 667.344 929.307 667.353C929.535 667.36 929.986 667.225 930.493 666.397L930.497 666.391L939.01 652.759C939.309 652.254 939.702 651.847 940.209 651.575C940.719 651.302 941.276 651.2 941.842 651.2V652.2ZM947.346 651.2V652.2H941.842V651.2H947.346ZM916.945 651.2V652.2H911.441V651.2H916.945Z" fill="#FFEDD1"/>
<path d="M884.412 651.2C885.369 651.2 886.264 651.384 887.033 651.879C887.804 652.374 888.347 653.116 888.724 654.049H888.725L905.364 693.152L905.37 693.168C905.853 694.356 905.928 695.596 905.292 696.582C904.649 697.579 903.486 698 902.204 698H899.324C898.352 698 897.443 697.793 896.665 697.285C895.883 696.775 895.319 696.017 894.94 695.067L893.531 691.548L893.525 691.53L893.519 691.513C893.417 691.228 893.297 691.104 893.196 691.038C893.084 690.966 892.891 690.896 892.54 690.896H876.029C875.678 690.896 875.484 690.966 875.373 691.038C875.272 691.104 875.152 691.228 875.05 691.513L875.042 691.532L873.698 695.053C873.351 695.977 872.804 696.734 872.036 697.253C871.27 697.771 870.36 698 869.372 698H866.428C865.162 698 863.991 697.607 863.324 696.64C862.653 695.666 862.712 694.428 863.197 693.231L878.876 654.132L878.881 654.119L879.03 653.789C879.394 653.036 879.889 652.405 880.551 651.951C881.31 651.431 882.206 651.2 883.196 651.2V652.2L882.891 652.209C881.398 652.299 880.404 653.064 879.804 654.504L864.124 693.608C863.293 695.656 864.252 697 866.428 697H869.372L869.678 696.991C871.178 696.901 872.224 696.136 872.764 694.696L874.109 691.176C874.409 690.336 874.989 689.946 875.852 689.9L876.029 689.896H892.54C893.5 689.896 894.14 690.28 894.46 691.176L895.868 694.696C896.468 696.196 897.518 696.909 899.018 696.992L899.324 697H902.204L902.405 696.996C904.369 696.914 905.196 695.616 904.517 693.734L904.445 693.544L887.804 654.44C887.204 652.94 886.21 652.284 884.717 652.208L884.412 652.2V651.2ZM888.828 681.216V682.216H879.357V681.216H888.828ZM882.812 668.072C883.324 666.664 884.476 666.728 885.052 668.072L890.109 680.296C890.557 681.448 890.044 682.216 888.828 682.216V681.216C889.121 681.216 889.229 681.152 889.258 681.13C889.269 681.093 889.292 680.957 889.176 680.658H889.175L884.133 668.466C884.053 668.278 883.97 668.164 883.91 668.099C883.867 668.159 883.809 668.258 883.752 668.414L883.744 668.434L879.009 680.657L879.008 680.658C878.892 680.956 878.914 681.092 878.925 681.13C878.953 681.152 879.061 681.216 879.357 681.216V682.216L879.137 682.207C878.151 682.124 877.715 681.472 878.003 680.508L878.076 680.296L882.812 668.072ZM884.412 651.2V652.2H883.196V651.2H884.412Z" fill="#FFEDD1"/>
<path d="M818.92 674.6C818.92 661.376 828.969 650.496 841.552 650.496C848.458 650.496 854.646 653.842 858.787 659.025L859.182 659.533L859.188 659.541C859.968 660.595 860.249 661.783 859.795 662.873C859.357 663.923 858.353 664.599 857.19 664.937L854.976 665.632L854.977 665.633C854.005 665.944 853.095 665.962 852.229 665.666C851.389 665.379 850.685 664.827 850.052 664.161L849.628 663.746C847.465 661.716 844.63 660.432 841.68 660.432C835.064 660.432 829.304 667.016 829.304 674.664C829.304 682.32 835.013 688.896 842.768 688.896V689.896L842.377 689.891C834.325 689.677 828.492 682.886 828.309 675.044L828.304 674.664C828.304 666.6 834.384 659.432 841.68 659.432C845.136 659.432 848.4 661.032 850.768 663.464C851.92 664.68 853.072 665.192 854.672 664.68L856.912 663.976C858.896 663.4 859.664 661.864 858.384 660.136C854.54 655.052 848.714 651.71 842.186 651.506L841.552 651.496C829.584 651.496 819.92 661.864 819.92 674.6C819.92 687.4 829.584 697.767 842.512 697.768C853.978 697.768 862.715 689.148 862.985 682.469L862.992 682.152C862.992 673.992 863.667 673.369 860.64 673.323L859.984 673.32V672.32C860.864 672.32 861.71 672.317 862.354 672.524C862.719 672.642 863.068 672.839 863.351 673.164C863.625 673.48 863.78 673.853 863.874 674.229C864.051 674.937 864.065 675.904 864.053 677.11C864.039 678.373 863.992 679.979 863.992 682.152C863.992 685.915 861.556 690.074 857.762 693.247C853.935 696.447 848.592 698.768 842.512 698.768C828.995 698.767 818.92 687.915 818.92 674.6ZM841 678.12V676.264C841 675.117 841.328 674.094 842.074 673.359C842.818 672.628 843.838 672.32 844.944 672.32V673.32L844.605 673.332C842.957 673.451 842 674.464 842 676.264V678.12L842.012 678.459C842.123 679.998 843.013 680.934 844.595 681.052L844.944 681.064H853.328C854.544 681.065 855.184 681.832 854.672 682.984C853.008 686.568 849.423 689.896 842.768 689.896V688.896C849.004 688.896 852.248 685.822 853.761 682.57C853.839 682.392 853.851 682.28 853.85 682.228C853.849 682.202 853.845 682.19 853.844 682.188V682.186C853.843 682.185 853.842 682.184 853.84 682.182C853.837 682.179 853.833 682.176 853.826 682.171C853.813 682.161 853.789 682.145 853.749 682.129C853.667 682.096 853.53 682.064 853.328 682.064H844.944C843.798 682.064 842.773 681.735 842.039 680.989C841.308 680.246 841 679.227 841 678.12ZM859.984 672.32V673.32H844.944V672.32H859.984Z" fill="#FFEDD1"/>
</svg>
